<?xml version="1.0" encoding="UTF-8" standalone="no"?>
<!-- Created with Inkscape (http://www.inkscape.org/) -->

<svg
   xmlns:dc="http://purl.org/dc/elements/1.1/"
   xmlns:cc="http://creativecommons.org/ns#"
   xmlns:rdf="http://www.w3.org/1999/02/22-rdf-syntax-ns#"
   xmlns:svg="http://www.w3.org/2000/svg"
   xmlns="http://www.w3.org/2000/svg"
   xmlns:sodipodi="http://sodipodi.sourceforge.net/DTD/sodipodi-0.dtd"
   xmlns:inkscape="http://www.inkscape.org/namespaces/inkscape"
   version="1.2"
   width="1024"
   height="620"
   id="svg2"
   inkscape:version="0.48.2 r9819"
   sodipodi:docname="HierarchicalVoxelFields17.svg">
  <sodipodi:namedview
     pagecolor="#111111"
     bordercolor="#666666"
     borderopacity="1"
     objecttolerance="10"
     gridtolerance="10"
     guidetolerance="10"
     inkscape:pageopacity="1"
     inkscape:pageshadow="2"
     inkscape:window-width="2560"
     inkscape:window-height="1378"
     id="namedview12"
     showgrid="true"
     inkscape:zoom="1.0766271"
     inkscape:cx="288.56009"
     inkscape:cy="235.48434"
     inkscape:window-x="-8"
     inkscape:window-y="-8"
     inkscape:window-maximized="1"
     inkscape:current-layer="svg2"
     inkscape:snap-bbox="false"
     inkscape:snap-midpoints="true"
     inkscape:snap-nodes="true"
     inkscape:snap-grids="false"
     inkscape:snap-to-guides="false"
     inkscape:snap-smooth-nodes="true"
     inkscape:object-nodes="true"
     inkscape:object-paths="true"
     inkscape:snap-global="true">
    <inkscape:grid
       snapvisiblegridlinesonly="true"
       enabled="true"
       visible="true"
       empspacing="5"
       id="grid2989"
       type="xygrid" />
  </sodipodi:namedview>
  <defs
     id="defs4">
    <marker
       style="overflow:visible;"
       id="Arrow1Mend"
       refX="0.0"
       refY="0.0"
       orient="auto"
       inkscape:stockid="Arrow1Mend">
      <path
         transform="scale(0.4) rotate(180) translate(10,0)"
         style="fill-rule:evenodd;stroke:#000000;stroke-width:1.0pt;"
         d="M 0.0,0.0 L 5.0,-5.0 L -12.5,0.0 L 5.0,5.0 L 0.0,0.0 z "
         id="path4070" />
    </marker>
    <marker
       style="overflow:visible;"
       id="Arrow1Mendo"
       refX="0.0"
       refY="0.0"
       orient="auto"
       inkscape:stockid="Arrow1Mendo">
      <path
         transform="scale(0.4) rotate(180) translate(10,0)"
         style="stroke:#ff0000;stroke-width:1.0pt;fill:#ff0000;fill-rule:evenodd"
         d="M 0.0,0.0 L 5.0,-5.0 L -12.5,0.0 L 5.0,5.0 L 0.0,0.0 z "
         id="path4508" />
    </marker>
    <marker
       style="overflow:visible;"
       id="Arrow1MendB"
       refX="0.0"
       refY="0.0"
       orient="auto"
       inkscape:stockid="Arrow1MendB">
      <path
         transform="scale(0.4) rotate(180) translate(10,0)"
         style="stroke:#ff00ff;stroke-width:1.0pt;fill:#ff00ff;fill-rule:evenodd"
         d="M 0.0,0.0 L 5.0,-5.0 L -12.5,0.0 L 5.0,5.0 L 0.0,0.0 z "
         id="path4858" />
    </marker>
    <marker
       style="overflow:visible;"
       id="Arrow1Mendh"
       refX="0.0"
       refY="0.0"
       orient="auto"
       inkscape:stockid="Arrow1Mendh">
      <path
         transform="scale(0.4) rotate(180) translate(10,0)"
         style="stroke:#00ff00;stroke-width:1.0pt;fill:#00ff00;fill-rule:evenodd"
         d="M 0.0,0.0 L 5.0,-5.0 L -12.5,0.0 L 5.0,5.0 L 0.0,0.0 z "
         id="path5414" />
    </marker>
    <marker
       style="overflow:visible"
       id="Arrow1Mendh-3"
       refX="0"
       refY="0"
       orient="auto"
       inkscape:stockid="Arrow1Mendh">
      <path
         inkscape:connector-curvature="0"
         transform="matrix(-0.4,0,0,-0.4,-4,0)"
         style="fill:#00ff00;fill-rule:evenodd;stroke:#00ff00;stroke-width:1pt"
         d="M 0,0 5,-5 -12.5,0 5,5 0,0 z"
         id="path5414-2" />
    </marker>
    <marker
       style="overflow:visible"
       id="Arrow1Mendh-2"
       refX="0"
       refY="0"
       orient="auto"
       inkscape:stockid="Arrow1Mendh">
      <path
         inkscape:connector-curvature="0"
         transform="matrix(-0.4,0,0,-0.4,-4,0)"
         style="fill:#00ff00;fill-rule:evenodd;stroke:#00ff00;stroke-width:1pt"
         d="M 0,0 5,-5 -12.5,0 5,5 0,0 z"
         id="path5414-4" />
    </marker>
    <marker
       style="overflow:visible;"
       id="Arrow1Mend3"
       refX="0.0"
       refY="0.0"
       orient="auto"
       inkscape:stockid="Arrow1Mend3">
      <path
         transform="scale(0.4) rotate(180) translate(10,0)"
         style="stroke:#00ffff;stroke-width:1.0pt;fill:#00ffff;fill-rule:evenodd"
         d="M 0.0,0.0 L 5.0,-5.0 L -12.5,0.0 L 5.0,5.0 L 0.0,0.0 z "
         id="path7595" />
    </marker>
    <filter
       inkscape:collect="always"
       id="filter8858">
      <feGaussianBlur
         inkscape:collect="always"
         stdDeviation="1.7827872"
         id="feGaussianBlur8860" />
    </filter>
    <filter
       inkscape:collect="always"
       id="filter8862">
      <feGaussianBlur
         inkscape:collect="always"
         stdDeviation="2.3770496"
         id="feGaussianBlur8864" />
    </filter>
    <filter
       inkscape:collect="always"
       id="filter8977">
      <feGaussianBlur
         inkscape:collect="always"
         stdDeviation="1.1885248"
         id="feGaussianBlur8979" />
    </filter>
    <marker
       style="overflow:visible;"
       id="Arrow1Mendf"
       refX="0.0"
       refY="0.0"
       orient="auto"
       inkscape:stockid="Arrow1Mendf">
      <path
         transform="scale(0.4) rotate(180) translate(10,0)"
         style="stroke:#ffff00;stroke-width:1.0pt;fill:#ffff00;fill-rule:evenodd"
         d="M 0.0,0.0 L 5.0,-5.0 L -12.5,0.0 L 5.0,5.0 L 0.0,0.0 z "
         id="path9212" />
    </marker>
    <filter
       id="filter9656"
       inkscape:collect="always">
      <feGaussianBlur
         id="feGaussianBlur9658"
         stdDeviation="2.0422361"
         inkscape:collect="always" />
    </filter>
    <filter
       id="filter9660"
       inkscape:collect="always">
      <feGaussianBlur
         id="feGaussianBlur9662"
         stdDeviation="1.5828861"
         inkscape:collect="always" />
    </filter>
    <filter
       id="filter9664"
       inkscape:collect="always">
      <feGaussianBlur
         id="feGaussianBlur9666"
         stdDeviation="1.0950882"
         inkscape:collect="always" />
    </filter>
    <filter
       id="filter10173"
       inkscape:collect="always">
      <feGaussianBlur
         id="feGaussianBlur10175"
         stdDeviation="1.0394039"
         inkscape:collect="always" />
    </filter>
    <filter
       id="filter10236"
       inkscape:collect="always">
      <feGaussianBlur
         id="feGaussianBlur10238"
         stdDeviation="1.0394039"
         inkscape:collect="always" />
    </filter>
    <filter
       height="1.3526741"
       y="-0.17633705"
       width="1.3526741"
       x="-0.17633705"
       id="filter10309"
       inkscape:collect="always">
      <feGaussianBlur
         id="feGaussianBlur10311"
         stdDeviation="1.4694754"
         inkscape:collect="always" />
    </filter>
    <filter
       height="1.3526741"
       y="-0.17633705"
       width="1.3526741"
       x="-0.17633705"
       id="filter10313"
       inkscape:collect="always">
      <feGaussianBlur
         id="feGaussianBlur10315"
         stdDeviation="1.4694754"
         inkscape:collect="always" />
    </filter>
    <filter
       height="1.3526741"
       y="-0.17633705"
       width="1.3526741"
       x="-0.17633705"
       id="filter10317"
       inkscape:collect="always">
      <feGaussianBlur
         id="feGaussianBlur10319"
         stdDeviation="1.4694754"
         inkscape:collect="always" />
    </filter>
    <filter
       height="1.3526741"
       y="-0.17633705"
       width="1.3526741"
       x="-0.17633705"
       id="filter10321"
       inkscape:collect="always">
      <feGaussianBlur
         id="feGaussianBlur10323"
         stdDeviation="1.4694754"
         inkscape:collect="always" />
    </filter>
    <filter
       height="1.3526741"
       y="-0.17633705"
       width="1.3526741"
       x="-0.17633705"
       id="filter10325"
       inkscape:collect="always">
      <feGaussianBlur
         id="feGaussianBlur10327"
         stdDeviation="1.4694754"
         inkscape:collect="always" />
    </filter>
    <filter
       height="1.3526741"
       y="-0.17633705"
       width="1.3526741"
       x="-0.17633705"
       id="filter10329"
       inkscape:collect="always">
      <feGaussianBlur
         id="feGaussianBlur10331"
         stdDeviation="1.4694754"
         inkscape:collect="always" />
    </filter>
    <filter
       height="1.3526741"
       y="-0.17633705"
       width="1.3526741"
       x="-0.17633705"
       id="filter10333"
       inkscape:collect="always">
      <feGaussianBlur
         id="feGaussianBlur10335"
         stdDeviation="1.4694754"
         inkscape:collect="always" />
    </filter>
    <filter
       height="1.3526741"
       y="-0.17633705"
       width="1.3526741"
       x="-0.17633705"
       id="filter10337"
       inkscape:collect="always">
      <feGaussianBlur
         id="feGaussianBlur10339"
         stdDeviation="1.4694754"
         inkscape:collect="always" />
    </filter>
    <filter
       height="1.3526741"
       y="-0.17633705"
       width="1.3526741"
       x="-0.17633705"
       id="filter10341"
       inkscape:collect="always">
      <feGaussianBlur
         id="feGaussianBlur10343"
         stdDeviation="1.4694754"
         inkscape:collect="always" />
    </filter>
    <filter
       height="1.4149107"
       y="-0.20745535"
       width="1.4149107"
       x="-0.20745535"
       id="filter10457"
       inkscape:collect="always">
      <feGaussianBlur
         id="feGaussianBlur10459"
         stdDeviation="1.7287946"
         inkscape:collect="always" />
    </filter>
    <filter
       height="1.4149107"
       y="-0.20745535"
       width="1.4149107"
       x="-0.20745535"
       id="filter10461"
       inkscape:collect="always">
      <feGaussianBlur
         id="feGaussianBlur10463"
         stdDeviation="1.7287946"
         inkscape:collect="always" />
    </filter>
    <filter
       height="1.4149107"
       y="-0.20745535"
       width="1.4149107"
       x="-0.20745535"
       id="filter10465"
       inkscape:collect="always">
      <feGaussianBlur
         id="feGaussianBlur10467"
         stdDeviation="1.7287946"
         inkscape:collect="always" />
    </filter>
    <filter
       height="1.4149107"
       y="-0.20745535"
       width="1.4149107"
       x="-0.20745535"
       id="filter10469"
       inkscape:collect="always">
      <feGaussianBlur
         id="feGaussianBlur10471"
         stdDeviation="1.7287946"
         inkscape:collect="always" />
    </filter>
    <filter
       height="1.4149107"
       y="-0.20745535"
       width="1.4149107"
       x="-0.20745535"
       id="filter10473"
       inkscape:collect="always">
      <feGaussianBlur
         id="feGaussianBlur10475"
         stdDeviation="1.7287946"
         inkscape:collect="always" />
    </filter>
    <filter
       height="1.4149107"
       y="-0.20745535"
       width="1.4149107"
       x="-0.20745535"
       id="filter10477"
       inkscape:collect="always">
      <feGaussianBlur
         id="feGaussianBlur10479"
         stdDeviation="1.7287946"
         inkscape:collect="always" />
    </filter>
    <filter
       height="1.4149107"
       y="-0.20745535"
       width="1.4149107"
       x="-0.20745535"
       id="filter10481"
       inkscape:collect="always">
      <feGaussianBlur
         id="feGaussianBlur10483"
         stdDeviation="1.7287946"
         inkscape:collect="always" />
    </filter>
    <filter
       height="1.4149107"
       y="-0.20745535"
       width="1.4149107"
       x="-0.20745535"
       id="filter10485"
       inkscape:collect="always">
      <feGaussianBlur
         id="feGaussianBlur10487"
         stdDeviation="1.7287946"
         inkscape:collect="always" />
    </filter>
    <filter
       height="1.4149107"
       y="-0.20745535"
       width="1.4149107"
       x="-0.20745535"
       id="filter10489"
       inkscape:collect="always">
      <feGaussianBlur
         id="feGaussianBlur10491"
         stdDeviation="1.7287946"
         inkscape:collect="always" />
    </filter>
    <filter
       id="filter10517"
       inkscape:collect="always">
      <feGaussianBlur
         id="feGaussianBlur10519"
         stdDeviation="1.1272847"
         inkscape:collect="always" />
    </filter>
    <filter
       id="filter10521"
       inkscape:collect="always">
      <feGaussianBlur
         id="feGaussianBlur10523"
         stdDeviation="1.1272847"
         inkscape:collect="always" />
    </filter>
    <filter
       id="filter10525"
       inkscape:collect="always">
      <feGaussianBlur
         id="feGaussianBlur10527"
         stdDeviation="1.1272847"
         inkscape:collect="always" />
    </filter>
    <filter
       id="filter10529"
       inkscape:collect="always">
      <feGaussianBlur
         id="feGaussianBlur10531"
         stdDeviation="1.1272847"
         inkscape:collect="always" />
    </filter>
    <filter
       id="filter10533"
       inkscape:collect="always">
      <feGaussianBlur
         id="feGaussianBlur10535"
         stdDeviation="1.1272847"
         inkscape:collect="always" />
    </filter>
    <filter
       id="filter10537"
       inkscape:collect="always">
      <feGaussianBlur
         id="feGaussianBlur10539"
         stdDeviation="1.1272847"
         inkscape:collect="always" />
    </filter>
    <filter
       height="1.0367665"
       y="-0.018383255"
       width="1.4087212"
       x="-0.20436059"
       id="filter10570"
       inkscape:collect="always">
      <feGaussianBlur
         id="feGaussianBlur10572"
         stdDeviation="1.120865"
         inkscape:collect="always" />
    </filter>
    <filter
       height="1.0372887"
       y="-0.018644361"
       width="1.3409614"
       x="-0.17048069"
       id="filter10574"
       inkscape:collect="always">
      <feGaussianBlur
         id="feGaussianBlur10576"
         stdDeviation="1.120865"
         inkscape:collect="always" />
    </filter>
    <filter
       id="filter10578"
       inkscape:collect="always">
      <feGaussianBlur
         id="feGaussianBlur10580"
         stdDeviation="1.120865"
         inkscape:collect="always" />
    </filter>
    <filter
       id="filter10826"
       inkscape:collect="always">
      <feGaussianBlur
         id="feGaussianBlur10828"
         stdDeviation="1.442064"
         inkscape:collect="always" />
    </filter>
    <filter
       id="filter10830"
       inkscape:collect="always">
      <feGaussianBlur
         id="feGaussianBlur10832"
         stdDeviation="1.442064"
         inkscape:collect="always" />
    </filter>
    <filter
       id="filter10834"
       inkscape:collect="always">
      <feGaussianBlur
         id="feGaussianBlur10836"
         stdDeviation="1.442064"
         inkscape:collect="always" />
    </filter>
    <filter
       id="filter10856"
       inkscape:collect="always">
      <feGaussianBlur
         id="feGaussianBlur10858"
         stdDeviation="1.8336735"
         inkscape:collect="always" />
    </filter>
    <filter
       id="filter10860"
       inkscape:collect="always">
      <feGaussianBlur
         id="feGaussianBlur10862"
         stdDeviation="1.8336735"
         inkscape:collect="always" />
    </filter>
    <filter
       id="filter10864"
       inkscape:collect="always">
      <feGaussianBlur
         id="feGaussianBlur10866"
         stdDeviation="1.8336735"
         inkscape:collect="always" />
    </filter>
    <marker
       style="overflow:visible"
       id="Arrow1MendB-4"
       refX="0"
       refY="0"
       orient="auto"
       inkscape:stockid="Arrow1MendB">
      <path
         inkscape:connector-curvature="0"
         transform="matrix(-0.4,0,0,-0.4,-4,0)"
         style="fill:#ff00ff;fill-rule:evenodd;stroke:#ff00ff;stroke-width:1pt"
         d="M 0,0 5,-5 -12.5,0 5,5 0,0 z"
         id="path4858-7" />
    </marker>
    <filter
       inkscape:collect="always"
       id="filter18524">
      <feGaussianBlur
         inkscape:collect="always"
         stdDeviation="0.90982794"
         id="feGaussianBlur18526" />
    </filter>
    <filter
       inkscape:collect="always"
       id="filter18557"
       x="-0.0090945657"
       width="1.0181891"
       y="-0.10998867"
       height="1.2199773">
      <feGaussianBlur
         inkscape:collect="always"
         stdDeviation="1.0614659"
         id="feGaussianBlur18559" />
    </filter>
    <filter
       inkscape:collect="always"
       id="filter18598"
       x="-0.011043401"
       width="1.0220868"
       y="-0.13355767"
       height="1.2671153">
      <feGaussianBlur
         inkscape:collect="always"
         stdDeviation="1.2889229"
         id="feGaussianBlur18600" />
    </filter>
  </defs>
  <metadata
     id="metadata7">
    <rdf:RDF>
      <cc:Work
         rdf:about="">
        <dc:format>image/svg+xml</dc:format>
        <dc:type
           rdf:resource="http://purl.org/dc/dcmitype/StillImage" />
        <dc:title />
      </cc:Work>
    </rdf:RDF>
  </metadata>
  <g
     id="layer1"
     transform="translate(0,-432.36215)" />
  <flowRoot
     style="font-size:18px;font-style:italic;font-variant:normal;font-weight:bold;font-stretch:normal;text-align:center;line-height:125%;writing-mode:lr-tb;text-anchor:middle;fill:none;stroke:#ffffff;stroke-width:3.88899994;stroke-miterlimit:4;stroke-opacity:1;stroke-dasharray:none;stroke-dashoffset:0;font-family:LMRoman10;-inkscape-font-specification:LMRoman10 Bold Italic"
     xml:space="preserve"
     id="flowRoot2989"><flowRegion
       id="flowRegion2991"><rect
         id="rect2993"
         y="215.03156"
         x="58.516083"
         height="41.797203"
         width="61.302563" /></flowRegion><flowPara
       id="flowPara2995" /></flowRoot>  <flowRoot
     style="-inkscape-font-specification:Montserrat;font-family:Montserrat;font-weight:bold;font-style:italic;font-stretch:normal;font-variant:normal;font-size:18px;text-anchor:middle;text-align:center;writing-mode:lr;line-height:125%;stroke-width:3.88899999999999979;stroke-miterlimit:4;stroke-dasharray:none;stroke:#ffffff;stroke-dashoffset:0;fill-opacity:0;stroke-opacity:1;opacity:1;fill:none"
     id="flowRoot2991"
     xml:space="preserve"><flowRegion
       id="flowRegion2993"><rect
         style="-inkscape-font-specification:Montserrat;font-family:Montserrat"
         y="217.81804"
         x="74.306137"
         height="32.508934"
         width="44.583683"
         id="rect2995" /></flowRegion><flowPara
       id="flowPara2997" /></flowRoot>  <text
     xml:space="preserve"
     style="font-size:22px;font-style:italic;font-variant:normal;font-weight:bold;font-stretch:normal;text-align:center;line-height:125%;writing-mode:lr-tb;text-anchor:middle;fill:#00ff00;fill-opacity:1;stroke:none;font-family:Montserrat;-inkscape-font-specification:Montserrat Bold Italic"
     x="251.49709"
     y="119.72202"
     id="text18350"
     sodipodi:linespacing="125%"><tspan
       sodipodi:role="line"
       x="0"
       y="0"
       id="tspan18352"><tspan
         x="335.37207"
         y="119.72202"
         style="font-size:65.00091553%;baseline-shift:sub"
         id="tspan18356" /></tspan></text>
  <flowRoot
     style="-inkscape-font-specification:Open Sans Bold Italic;font-family:Open Sans;font-weight:bold;font-style:italic;font-stretch:normal;font-variant:normal;font-size:22px;text-anchor:middle;text-align:center;writing-mode:lr;line-height:125%;fill-opacity:1;opacity:0.8;fill:#cccccc;"
     id="flowRoot9916"
     xml:space="preserve"><flowRegion
       id="flowRegion9918"><rect
         y="449.09589"
         x="617.66974"
         height="84.523232"
         width="365.0289"
         id="rect9920" /></flowRegion><flowPara
       id="flowPara9922" /></flowRoot>  <flowRoot
     style="-inkscape-font-specification:Open Sans Bold Italic;font-family:Open Sans;font-weight:bold;font-style:italic;font-stretch:normal;font-variant:normal;font-size:22px;text-anchor:middle;text-align:center;writing-mode:lr;line-height:125%;fill-opacity:1;opacity:0.8;fill:#cccccc;"
     id="flowRoot9924"
     xml:space="preserve"><flowRegion
       id="flowRegion9926"><rect
         y="448.16705"
         x="659.46698"
         height="56.658428"
         width="265.64444"
         id="rect9928" /></flowRegion><flowPara
       id="flowPara9930" /></flowRoot>  <flowRoot
     style="-inkscape-font-specification:Open Sans Bold Italic;font-family:Open Sans;font-weight:bold;font-style:italic;font-stretch:normal;font-variant:normal;font-size:20px;text-anchor:middle;text-align:center;writing-mode:lr;line-height:125%;stroke-width:2.5;stroke-miterlimit:4;stroke-dasharray:2.5,2.5;stroke:none;stroke-dashoffset:0;fill-opacity:1;opacity:1;fill:#ff0000;"
     id="flowRoot10924"
     xml:space="preserve"><flowRegion
       id="flowRegion10926"><rect
         y="540.12091"
         x="697.54883"
         height="65.946693"
         width="226.63371"
         id="rect10928" /></flowRegion><flowPara
       id="flowPara10930" /></flowRoot>  <flowRoot
     style="-inkscape-font-specification:Open Sans Bold Italic;font-family:Open Sans;font-weight:bold;font-style:italic;font-stretch:normal;font-variant:normal;font-size:20px;text-anchor:middle;text-align:center;writing-mode:lr;line-height:125%;stroke-width:2.5;stroke-miterlimit:4;stroke-dasharray:2.5,2.5;stroke:none;stroke-dashoffset:0;fill-opacity:1;opacity:1;fill:#ff0000;"
     id="flowRoot10932"
     xml:space="preserve"><flowRegion
       id="flowRegion10934"><rect
         y="461.17062"
         x="724.4848"
         height="56.658428"
         width="200.62657"
         id="rect10936" /></flowRegion><flowPara
       id="flowPara10938" /></flowRoot>  <flowRoot
     style="-inkscape-font-specification:Open Sans Bold Italic;font-family:Open Sans;font-weight:bold;font-style:italic;font-stretch:normal;font-variant:normal;font-size:20px;text-anchor:middle;text-align:center;writing-mode:lr;line-height:125%;stroke-width:2;stroke-miterlimit:4;stroke-dasharray:none;stroke:none;stroke-dashoffset:0;fill-opacity:1;opacity:1;fill:#ffffff;"
     id="flowRoot11089"
     xml:space="preserve"><flowRegion
       id="flowRegion11091"><rect
         y="561.48395"
         x="748.63434"
         height="32.508934"
         width="247.0679"
         id="rect11093" /></flowRegion><flowPara
       id="flowPara11095" /></flowRoot>  <g
     id="g15465"
     transform="matrix(0.44374062,0,0,0.44374062,-132.17239,312.33472)"
     style="fill:#ffffff">
    <g
       word-spacing="normal"
       letter-spacing="normal"
       font-size-adjust="none"
       font-stretch="normal"
       font-weight="normal"
       font-variant="normal"
       font-style="normal"
       stroke-miterlimit="10.433"
       xml:space="preserve"
       transform="matrix(0.88571429,0,0,-0.88571429,-155,768)"
       id="g15467"
       style="font-style:normal;font-variant:normal;font-weight:normal;font-stretch:normal;letter-spacing:normal;word-spacing:normal;text-anchor:start;fill:#ffffff;stroke:#000000;stroke-width:2.25356889;stroke-linecap:butt;stroke-linejoin:miter;stroke-miterlimit:10.43299961;stroke-opacity:1;stroke-dasharray:none;stroke-dashoffset:0"><path
         id="path15469"
         d="m 572.35,350.69 -0.58,-0.16 -0.57,-0.18 -0.56,-0.21 -0.55,-0.23 -0.54,-0.26 -0.53,-0.29 -0.52,-0.31 -0.5,-0.33 -0.5,-0.35 -0.47,-0.37 -0.47,-0.39 -0.44,-0.41 -0.44,-0.43 -0.41,-0.45 -0.4,-0.45 -0.38,-0.48 -0.37,-0.48 -0.34,-0.5 -0.33,-0.51 -0.3,-0.52 -0.28,-0.53 -0.27,-0.54 -0.24,-0.55 -0.22,-0.55 -0.19,-0.56 -0.17,-0.56 -0.15,-0.56 -0.12,-0.57 -0.09,-0.57 -0.07,-0.57 -0.04,-0.57 -0.02,-0.56 c 0,-4.78 3.19,-8.36 7.88,-8.36 v 1.09 c -2.75,0 -4.78,2.1 -4.78,5.88 0,3.14 1.84,12.5 8.56,14.29 h 0 c 1.25,-2.28 2.73,-4.98 2.73,-8.56 0,-3.3 -1.89,-11.61 -6.51,-11.61 v -1.09 c 5.83,0 9.95,7.81 9.95,14.69 0,4.54 -1.98,7.03 -3.69,9.26 -1.78,2.25 -4.71,5.99 -4.71,8.17 0,1.11 0.98,2.3 2.73,2.3 1.5,0 2.48,-0.64 3.53,-1.34 1,-0.6 2,-1.25 2.75,-1.25 1.24,0 1.99,1.2 1.99,2 0,1.09 -0.8,1.23 -2.6,1.64 -2.58,0.54 -3.28,0.54 -4.08,0.54 -3.89,0 -5.69,-2.14 -5.69,-5.12 0,-2.7 1.46,-5.49 3,-8.53 z"
         inkscape:connector-curvature="0"
         style="fill:#ffffff;stroke-width:0" /><path
         id="path15471"
         d="m 599.89,334.14 0,0.12 0,0.12 -0.01,0.12 -0.01,0.11 -0.01,0.11 -0.01,0.11 -0.01,0.1 -0.02,0.1 -0.02,0.1 -0.02,0.09 -0.02,0.09 -0.02,0.08 -0.03,0.09 -0.02,0.08 -0.03,0.07 -0.03,0.08 -0.03,0.07 -0.03,0.07 -0.03,0.06 -0.03,0.06 -0.04,0.06 -0.03,0.06 -0.04,0.05 -0.03,0.05 -0.04,0.05 -0.04,0.05 -0.08,0.09 -0.07,0.08 -0.08,0.07 -0.08,0.06 -0.08,0.05 -0.08,0.05 -0.08,0.04 -0.07,0.03 -0.07,0.03 -0.07,0.03 -0.07,0.02 -0.06,0.01 -0.06,0.01 -0.05,0.01 -0.04,0.01 -0.04,0 -0.03,0.01 -0.02,0 -0.02,0 c -0.91,0 -1.87,-0.96 -1.87,-1.86 0,-0.58 0.34,-0.86 0.59,-1.08 0.59,-0.49 1.28,-1.39 1.28,-2.78 0,-1.56 -2.3,-9.06 -6.44,-9.06 -2.82,0 -2.82,2.51 -2.82,3.1 0,1.6 0.62,3.55 1.92,6.79 0.28,0.73 0.48,1.26 0.48,1.86 0,1.81 -1.53,2.98 -3.31,2.98 -3.49,0 -5.05,-4.77 -5.05,-5.33 0,-0.45 0.49,-0.45 0.6,-0.45 0.48,0 0.51,0.17 0.62,0.56 0.83,2.86 2.33,4.25 3.72,4.25 0.59,0 0.87,-0.39 0.87,-1.22 0,-0.79 -0.28,-1.53 -0.62,-2.33 -1.5,-3.87 -1.88,-5.37 -1.88,-6.62 0,-3.45 2.72,-4.56 5.36,-4.56 5.86,0 8.3,10.14 8.3,13 z"
         inkscape:connector-curvature="0"
         style="fill:#ffffff;stroke-width:0" /><path
         id="path15473"
         d="m 620.9,330.75 -0.01,0.35 -0.03,0.35 -0.04,0.34 -0.05,0.33 -0.07,0.32 -0.09,0.31 -0.1,0.3 -0.12,0.28 -0.12,0.28 -0.15,0.27 -0.15,0.25 -0.17,0.25 -0.17,0.23 -0.19,0.22 -0.2,0.22 -0.21,0.2 -0.22,0.19 -0.23,0.17 -0.24,0.17 -0.25,0.15 -0.25,0.15 -0.27,0.13 -0.27,0.12 -0.28,0.1 -0.28,0.1 -0.29,0.08 -0.3,0.07 -0.3,0.06 -0.31,0.04 -0.31,0.03 -0.31,0.02 -0.32,0.01 c -5.17,0 -10.05,-4.84 -10.05,-9.61 0,-3.48 2.55,-6.09 6.35,-6.09 l 0.03,0.97 c -1.73,0 -3.48,1.12 -3.48,3.87 0,1.42 0.67,4.84 2.03,6.83 1.5,2.15 3.51,3.06 5.07,3.06 1.9,0 3.49,-1.3 3.49,-3.87 0,-0.83 -0.41,-4.29 -1.95,-6.72 -1.32,-2.05 -3.41,-3.17 -5.16,-3.17 h 0 l -0.03,-0.97 c 4.98,0 10,4.59 10,9.61 z"
         inkscape:connector-curvature="0"
         style="fill:#ffffff;stroke-width:0" /><path
         id="path15475"
         d="m 630.75,325.17 -0.03,-0.11 -0.04,-0.12 -0.05,-0.12 -0.05,-0.12 -0.05,-0.12 -0.06,-0.13 -0.06,-0.13 -0.07,-0.13 -0.07,-0.12 -0.07,-0.13 -0.08,-0.13 -0.09,-0.13 -0.09,-0.12 -0.09,-0.12 -0.1,-0.13 -0.1,-0.11 -0.11,-0.12 -0.11,-0.11 -0.11,-0.1 -0.12,-0.1 -0.12,-0.1 -0.13,-0.09 -0.13,-0.08 -0.13,-0.08 -0.14,-0.07 -0.14,-0.06 -0.14,-0.06 -0.15,-0.04 -0.16,-0.04 -0.15,-0.02 -0.16,-0.02 -0.17,0 c -0.1,0 -1.15,0 -1.89,0.48 1.44,0.45 1.53,1.72 1.53,1.92 0,0.77 -0.59,1.3 -1.39,1.3 -0.96,0 -1.98,-0.85 -1.98,-2.14 0,-1.74 1.95,-2.53 3.66,-2.53 1.61,0 3.03,1 3.9,2.47 0.83,-1.85 2.75,-2.47 4.14,-2.47 4.02,0 6.14,4.34 6.14,5.32 0,0.46 -0.45,0.46 -0.56,0.46 -0.48,0 -0.51,-0.17 -0.65,-0.6 -0.74,-2.4 -2.83,-4.21 -4.79,-4.21 -1.39,0 -2.12,0.93 -2.12,2.26 0,0.91 0.84,4.08 1.81,7.95 0.7,2.68 2.27,3.55 3.42,3.55 0.07,0 1.14,0 1.88,-0.48 -1.11,-0.32 -1.53,-1.3 -1.53,-1.93 0,-0.76 0.59,-1.28 1.39,-1.28 0.81,0 1.95,0.66 1.95,2.13 0,1.95 -2.23,2.53 -3.62,2.53 -1.74,0 -3.15,-1.14 -3.91,-2.47 -0.63,1.44 -2.22,2.47 -4.17,2.47 -3.91,0 -6.14,-4.28 -6.14,-5.33 0,-0.45 0.5,-0.45 0.59,-0.45 0.45,0 0.48,0.14 0.67,0.59 0.86,2.72 3.07,4.22 4.77,4.22 1.15,0 2.09,-0.62 2.09,-2.3 0,-0.7 -0.42,-2.43 -0.73,-3.62 z"
         inkscape:connector-curvature="0"
         style="fill:#ffffff;stroke-width:0" /><path
         id="path15477"
         d="m 652.45,329.42 0.09,0 0.11,0 0.12,0 0.12,0 0.13,0.01 0.14,0 0.15,0 0.16,0.01 0.16,0.01 0.17,0.01 0.17,0.01 0.18,0.01 0.18,0.01 0.19,0.01 0.39,0.04 0.39,0.04 0.41,0.05 0.41,0.06 0.4,0.07 0.4,0.08 0.2,0.04 0.19,0.05 0.2,0.05 0.19,0.06 0.18,0.05 0.18,0.06 c 2.58,0.91 3.06,2.58 3.06,3.63 0,1.92 -1.92,3.06 -4.33,3.06 v -0.97 c 1.53,0 2.83,-0.76 2.83,-2.09 0,-3.38 -5.89,-3.38 -7.39,-3.38 h -1.7 c 1.42,5.05 5.29,5.47 6.26,5.47 v 0.97 c -4.17,0 -9.82,-3.2 -9.82,-9.16 0,-3.51 2.2,-6.54 6.28,-6.54 5.89,0 8.64,3.43 8.64,3.93 0,0.21 -0.32,0.6 -0.6,0.6 -0.2,0 -0.28,-0.08 -0.56,-0.36 -2.72,-3.2 -6.8,-3.2 -7.42,-3.2 -2.09,0 -3.49,1.39 -3.49,4.21 0,0.49 0,1.19 0.43,3.1 z"
         inkscape:connector-curvature="0"
         style="fill:#ffffff;stroke-width:0" /><path
         id="path15479"
         d="m 673.3,344.62 0.01,0 0,0.01 0,0 0,0.01 0,0 0.01,0.01 0,0 0,0.01 0,0.01 0,0.01 0.01,0.01 0,0.02 0.01,0.02 0.01,0.02 0,0.02 0.01,0.02 0,0.02 0.01,0.03 0,0.02 0.02,0.05 0.01,0.04 0,0.03 0.01,0.02 0,0.02 0.01,0.02 0,0.02 0.01,0.02 0,0.02 0,0.01 0.01,0.01 0,0.01 0,0 0,0.01 0,0 0,0.01 0,0 0,0.01 0,0 0,0 0,0.01 0.01,0 c 0,0.19 -0.15,0.5 -0.57,0.5 -0.68,0 -3.59,-0.28 -4.45,-0.36 -0.25,-0.03 -0.73,-0.06 -0.73,-0.8 0,-0.48 0.48,-0.48 0.87,-0.48 1.67,0 1.67,-0.25 1.67,-0.53 0,-0.24 -0.08,-0.46 -0.14,-0.77 l -4.33,-17.2 c -0.11,-0.36 -0.14,-0.74 -0.14,-1.08 0,-2.24 1.99,-3.31 3.66,-3.31 0.84,0 1.89,0.28 2.8,1.84 0.73,1.28 1.21,3.34 1.21,3.48 0,0.46 -0.45,0.46 -0.56,0.46 -0.48,0 -0.54,-0.21 -0.69,-0.85 -0.45,-1.73 -1.12,-3.96 -2.62,-3.96 -0.94,0 -1.17,0.87 -1.17,1.7 0,0.39 0.09,1.05 0.2,1.44 z"
         inkscape:connector-curvature="0"
         style="fill:#ffffff;stroke-width:0" /><path
         id="path15481"
         d="m 727.11,345.22 0.14,0 0.15,0 0.14,0.01 0.07,0 0.08,0 0.07,0.01 0.07,0.01 0.07,0.01 0.07,0.01 0.07,0.01 0.06,0.02 0.07,0.02 0.06,0.02 0.06,0.03 0.06,0.02 0.06,0.03 0.05,0.04 0.05,0.04 0.05,0.04 0.04,0.04 0.04,0.05 0.02,0.03 0.02,0.03 0.01,0.03 0.02,0.03 0.01,0.03 0.02,0.03 0.01,0.03 0.01,0.04 0.01,0.03 0.01,0.04 0,0.04 0.01,0.04 0,0.04 0.01,0.04 0,0.05 0,0.04 c 0,1 -0.95,1 -1.64,1 h -29.84 c -0.71,0 -1.64,0 -1.64,-1 0,-0.98 0.93,-0.98 1.68,-0.98 z"
         inkscape:connector-curvature="0"
         style="fill:#ffffff;stroke-width:0" /><path
         id="path15483"
         d="m 727.16,335.55 0.07,0 0.06,0 0.14,0 0.14,0 0.07,0.01 0.07,0 0.07,0.01 0.07,0.01 0.06,0.01 0.07,0.01 0.07,0.01 0.06,0.02 0.07,0.02 0.06,0.02 0.06,0.03 0.06,0.02 0.05,0.04 0.05,0.03 0.05,0.04 0.05,0.04 0.04,0.05 0.02,0.02 0.02,0.03 0.02,0.03 0.02,0.02 0.01,0.03 0.02,0.03 0.01,0.03 0.02,0.04 0.01,0.03 0.01,0.04 0.01,0.03 0.01,0.04 0,0.04 0.01,0.04 0,0.04 0.01,0.05 0,0.04 0,0.05 c 0,1 -0.95,1 -1.69,1 h -29.75 c -0.75,0 -1.68,0 -1.68,-1 0,-1 0.93,-1 1.64,-1 z"
         inkscape:connector-curvature="0"
         style="fill:#ffffff;stroke-width:0" /><path
         id="path15485"
         d="m 780.32,282.21 0,0.02 -0.01,0.01 0,0.02 0,0.02 0,0.01 0,0.02 -0.01,0.02 0,0.01 0,0.02 -0.01,0.01 0,0.01 -0.01,0.02 0,0.01 -0.01,0.02 -0.01,0.01 0,0.01 -0.02,0.03 -0.01,0.02 -0.02,0.03 -0.02,0.02 -0.02,0.03 -0.02,0.02 -0.02,0.03 -0.01,0.02 -0.01,0.01 c -1.84,1.84 -5.17,5.17 -8.51,10.56 -8.02,12.85 -11.66,29.05 -11.66,48.22 0,13.41 1.8,30.69 10.02,45.55 3.94,7.06 8.01,11.15 10.2,13.34 0.16,0.16 0.16,0.25 0.16,0.41 0,0.5 -0.35,0.5 -1.05,0.5 -0.7,0 -0.8,0 -1.55,-0.75 -16.69,-15.2 -21.92,-38.02 -21.92,-59 0,-19.58 4.48,-39.3 17.14,-54.2 1,-1.15 2.89,-3.19 4.94,-4.99 0.59,-0.59 0.69,-0.59 1.39,-0.59 0.7,0 1.05,0 1.05,0.5 z"
         inkscape:connector-curvature="0"
         style="fill:#ffffff;stroke-width:0" /><path
         id="path15487"
         d="m 954.48,394.53 0,0.06 0,0.05 0,0.05 0,0.05 0,0.05 0,0.05 0,0.04 0,0.05 0,0.04 0,0.04 -0.01,0.04 0,0.04 0,0.04 0,0.04 0,0.03 -0.01,0.03 -0.01,0.07 0,0.06 -0.02,0.05 -0.01,0.05 -0.02,0.05 -0.02,0.04 -0.02,0.04 -0.02,0.03 -0.03,0.04 -0.03,0.02 -0.04,0.03 -0.04,0.02 -0.04,0.02 -0.03,0.01 -0.02,0.01 -0.03,0 -0.02,0.01 -0.03,0.01 -0.03,0 -0.03,0.01 -0.03,0 -0.04,0.01 -0.03,0 -0.04,0 -0.03,0.01 -0.04,0 -0.04,0 -0.05,0 -0.04,0 -0.04,0.01 -0.05,0 -0.05,0 -0.05,0 -0.05,0 -0.05,0 c -3.09,-3.19 -7.47,-3.19 -9.06,-3.19 v -1.55 c 1,0 3.94,0 6.51,1.3 v -25.81 c 0,-1.8 -0.14,-2.39 -4.62,-2.39 h -1.6 v -1.55 c 1.75,0.16 6.08,0.16 8.07,0.16 2,0 6.33,0 8.08,-0.16 v 1.55 h -1.6 c -4.48,0 -4.64,0.54 -4.64,2.39 z"
         inkscape:connector-curvature="0"
         style="fill:#ffffff;stroke-width:0" /><polyline
         id="polyline15489"
         points="788,340 1116.4,340 1116.4,342.04 788,342.04 "
         style="fill:#ffffff;fill-rule:nonzero;stroke-width:0" /><path
         id="path15491"
         d="m 802.68,326.73 0,0.05 0,0.06 0,0.05 0,0.05 0,0.05 0,0.05 0,0.04 0,0.05 0,0.04 0,0.04 -0.01,0.04 0,0.04 0,0.04 0,0.03 0,0.04 -0.01,0.03 -0.01,0.07 0,0.06 -0.02,0.05 -0.01,0.05 -0.02,0.05 -0.02,0.04 -0.02,0.04 -0.02,0.03 -0.03,0.04 -0.03,0.02 -0.04,0.03 -0.04,0.02 -0.04,0.02 -0.03,0.01 -0.02,0.01 -0.03,0 -0.02,0.01 -0.03,0.01 -0.03,0 -0.03,0.01 -0.03,0 -0.04,0.01 -0.03,0 -0.04,0 -0.04,0.01 -0.03,0 -0.04,0 -0.05,0 -0.04,0 -0.04,0 -0.05,0.01 -0.05,0 -0.05,0 -0.05,0 -0.05,0 c -3.09,-3.19 -7.47,-3.19 -9.06,-3.19 v -1.55 c 1,0 3.93,0 6.51,1.3 v -25.81 c 0,-1.8 -0.14,-2.39 -4.62,-2.39 h -1.6 v -1.55 c 1.75,0.16 6.08,0.16 8.07,0.16 2,0 6.32,0 8.07,-0.16 v 1.55 h -1.59 c -4.48,0 -4.64,0.54 -4.64,2.39 z"
         inkscape:connector-curvature="0"
         style="fill:#ffffff;stroke-width:0" /><path
         id="path15493"
         d="m 844.41,306.29 h 13.91 c 0.68,0 1.64,0 1.64,1 0,1 -0.96,1 -1.64,1 h -13.91 v 13.96 c 0,0.68 0,1.64 -1,1.64 -0.98,0 -0.98,-0.96 -0.98,-1.64 v -13.96 h -13.96 c -0.7,0 -1.64,0 -1.64,-1 0,-1 0.94,-1 1.64,-1 h 13.96 v -13.93 c 0,-0.71 0,-1.66 0.98,-1.66 1,0 1,0.95 1,1.66 z"
         inkscape:connector-curvature="0"
         style="fill:#ffffff;stroke-width:0" /><path
         id="path15495"
         d="m 896.85,311.73 0.03,0.1 0.02,0.11 0.03,0.12 0.03,0.11 0.02,0.12 0.03,0.12 0.06,0.25 0.07,0.25 0.06,0.25 0.06,0.24 0.06,0.25 0.03,0.11 0.03,0.12 0.02,0.11 0.03,0.11 0.03,0.1 0.02,0.1 0.02,0.1 0.02,0.09 0.02,0.08 0.01,0.08 0.02,0.07 0.01,0.07 0.01,0.05 0.01,0.05 0,0.04 0,0.03 c 0,0.91 -0.7,1.35 -1.45,1.35 -0.6,0 -1.49,-0.39 -1.83,-1.39 -0.16,-0.35 -2.5,-9.86 -2.84,-11.16 -0.36,-1.5 -0.46,-2.39 -0.46,-3.3 0,-0.54 0,-0.64 0.05,-0.89 -1.14,-2.64 -2.64,-4.18 -4.58,-4.18 -3.98,0 -3.98,3.68 -3.98,4.53 0,1.59 0.25,3.54 2.59,9.67 0.55,1.48 0.85,2.19 0.85,3.19 0,2.23 -1.65,4.08 -4.1,4.08 -4.73,0 -6.58,-7.22 -6.58,-7.68 0,-0.5 0.5,-0.5 0.61,-0.5 0.5,0 0.55,0.11 0.8,0.91 1.34,4.62 3.28,6.17 5.03,6.17 0.44,0 1.25,-0.05 1.25,-1.64 0,-1.25 -0.56,-2.64 -0.91,-3.48 -2.18,-5.88 -2.78,-8.18 -2.78,-10.07 0,-4.53 3.33,-6.28 7.07,-6.28 0.86,0 3.18,0 5.18,3.49 1.3,-3.19 4.74,-3.49 6.24,-3.49 3.73,0 5.92,3.14 7.22,6.13 1.68,3.89 3.28,10.56 3.28,12.95 0,2.75 -1.35,3.49 -2.19,3.49 -1.25,0 -2.48,-1.3 -2.48,-2.4 0,-0.64 0.29,-0.93 0.73,-1.34 0.55,-0.55 1.8,-1.84 1.8,-4.23 0,-1.69 -1.44,-6.58 -2.74,-9.11 -1.29,-2.64 -3.04,-4.39 -5.48,-4.39 -2.35,0 -3.69,1.5 -3.69,4.32 0,1.41 0.34,2.96 0.55,3.65 z"
         inkscape:connector-curvature="0"
         style="fill:#ffffff;stroke-width:0" /><path
         id="path15497"
         d="m 918.15,290.97 -0.03,-0.11 -0.04,-0.12 -0.05,-0.12 -0.04,-0.12 -0.06,-0.12 -0.06,-0.13 -0.06,-0.13 -0.06,-0.12 -0.08,-0.13 -0.07,-0.13 -0.08,-0.13 -0.09,-0.13 -0.09,-0.12 -0.09,-0.12 -0.1,-0.12 -0.1,-0.12 -0.1,-0.12 -0.11,-0.11 -0.12,-0.1 -0.11,-0.1 -0.13,-0.1 -0.12,-0.09 -0.13,-0.08 -0.14,-0.08 -0.13,-0.07 -0.15,-0.06 -0.14,-0.06 -0.15,-0.04 -0.15,-0.04 -0.16,-0.02 -0.16,-0.02 -0.16,0 c -0.11,0 -1.16,0 -1.89,0.48 1.43,0.45 1.53,1.72 1.53,1.92 0,0.77 -0.6,1.3 -1.39,1.3 -0.97,0 -1.99,-0.84 -1.99,-2.14 0,-1.74 1.95,-2.53 3.66,-2.53 1.61,0 3.03,1 3.91,2.47 0.82,-1.85 2.75,-2.47 4.13,-2.47 4.02,0 6.15,4.34 6.15,5.33 0,0.45 -0.46,0.45 -0.57,0.45 -0.48,0 -0.51,-0.17 -0.65,-0.6 -0.74,-2.4 -2.83,-4.21 -4.78,-4.21 -1.4,0 -2.13,0.93 -2.13,2.26 0,0.91 0.85,4.08 1.81,7.95 0.71,2.68 2.27,3.55 3.42,3.55 0.07,0 1.15,0 1.88,-0.48 -1.11,-0.31 -1.53,-1.3 -1.53,-1.92 0,-0.77 0.59,-1.29 1.39,-1.29 0.81,0 1.95,0.66 1.95,2.13 0,1.95 -2.23,2.53 -3.62,2.53 -1.74,0 -3.14,-1.14 -3.91,-2.47 -0.62,1.44 -2.22,2.47 -4.17,2.47 -3.91,0 -6.14,-4.28 -6.14,-5.33 0,-0.45 0.5,-0.45 0.59,-0.45 0.46,0 0.49,0.14 0.68,0.59 0.85,2.72 3.06,4.22 4.76,4.22 1.16,0 2.09,-0.62 2.09,-2.29 0,-0.71 -0.42,-2.44 -0.73,-3.63 z"
         inkscape:connector-curvature="0"
         style="fill:#ffffff;stroke-width:0" /><path
         id="path15499"
         d="m 951.41,300.42 0.01,0.02 0.01,0.03 0,0.02 0.01,0.02 0,0.02 0.01,0.02 0.01,0.03 0.01,0.04 0.01,0.03 0.01,0.04 0.01,0.03 0,0.02 0.01,0.03 0.01,0.03 0,0.02 0.01,0.02 0,0.02 0,0.02 0.01,0.02 0,0.02 0,0.02 0.01,0.02 0,0.02 0,0.03 0,0.03 0,0.04 0,0.03 0,0.02 0,0.02 0,0.02 0,0.02 c 0,0.69 -0.56,1.11 -1.15,1.11 -0.38,0 -1.05,-0.18 -1.42,-0.83 -0.11,-0.22 -0.39,-1.33 -0.57,-2.03 l -0.73,-2.89 c -0.2,-0.83 -1.28,-5.22 -1.39,-5.61 -0.03,0 -1.56,-3.03 -4.28,-3.03 -2.38,0 -2.38,2.26 -2.38,2.89 0,1.89 0.8,4.08 1.85,6.76 0.42,1.11 0.59,1.53 0.59,2.13 0,1.67 -1.42,2.95 -3.31,2.95 -3.52,0 -5.08,-4.73 -5.08,-5.33 0,-0.45 0.48,-0.45 0.59,-0.45 0.49,0 0.52,0.17 0.63,0.56 0.87,2.89 2.37,4.25 3.76,4.25 0.6,0 0.86,-0.39 0.86,-1.22 0,-0.79 -0.31,-1.56 -0.48,-2.01 -1.67,-4.25 -2.02,-5.55 -2.02,-7.08 0,-0.59 0,-2.24 1.36,-3.34 1.08,-0.91 2.55,-1.08 3.49,-1.08 1.39,0 2.64,0.51 3.79,1.56 -0.45,-1.92 -0.84,-3.38 -2.29,-5.12 -0.94,-1.08 -2.35,-2.22 -4.19,-2.22 -0.23,0 -1.88,0 -2.61,1.14 1.88,0.2 1.88,1.89 1.88,1.92 0,1.11 -1,1.31 -1.36,1.31 -0.86,0 -2.02,-0.69 -2.02,-2.3 0,-1.76 1.67,-3.06 4.14,-3.06 3.53,0 7.81,2.72 8.89,7.08 z"
         inkscape:connector-curvature="0"
         style="fill:#ffffff;stroke-width:0" /><path
         id="path15501"
         d="m 959.25,290.34 0.17,0.17 0.17,0.17 0.16,0.16 0.17,0.17 0.18,0.17 0.09,0.09 0.1,0.1 0.1,0.09 0.11,0.1 0.11,0.1 0.12,0.11 0.12,0.11 0.13,0.11 0.14,0.12 0.14,0.13 0.15,0.13 0.16,0.14 0.17,0.14 0.18,0.15 0.19,0.15 0.2,0.17 0.2,0.17 0.22,0.18 0.24,0.19 0.24,0.2 0.26,0.2 0.27,0.22 c 0.73,0.6 3.34,2.69 4.36,3.66 2.12,2.09 3.45,3.87 3.45,4.29 0,0.41 -0.45,0.41 -0.59,0.41 -0.31,0 -0.43,-0.06 -0.6,-0.34 -1.08,-1.6 -1.81,-2.13 -2.64,-2.13 -0.42,0 -0.95,0.03 -2,1.05 -1.17,1.19 -1.94,1.42 -2.75,1.42 -2.78,0 -4.67,-3.03 -4.67,-4.06 0,-0.33 0.36,-0.42 0.6,-0.42 0.42,0 0.5,0.09 0.62,0.48 0.53,1.22 2.48,1.3 3.05,1.3 0.79,0 1.7,-0.22 2.18,-0.33 1.93,-0.41 2.16,-0.41 3.03,-0.41 -0.9,-0.95 -1.53,-1.58 -4.84,-4.22 -2.72,-2.15 -3.66,-3.03 -4.31,-3.73 -2.1,-2.05 -3.11,-3.58 -3.11,-3.91 0,-0.4 0.45,-0.4 0.59,-0.4 0.35,0 0.42,0.06 0.6,0.34 0.94,1.33 2.01,2.13 3.2,2.13 0.42,0 0.94,-0.03 1.87,-0.91 1.1,-1.05 1.79,-1.56 2.91,-1.56 3.72,0 6.06,4.22 6.06,5.39 0,0.42 -0.39,0.45 -0.59,0.45 -0.42,0 -0.5,-0.17 -0.63,-0.55 -0.67,-1.75 -2.71,-2.57 -4.43,-2.57 -0.8,0 -1.67,0.17 -2.53,0.37 -1.61,0.35 -1.89,0.35 -2.52,0.35 -0.08,0 -0.59,0 -0.8,-0.04 z"
         inkscape:connector-curvature="0"
         style="fill:#ffffff;stroke-width:0" /><path
         id="path15503"
         d="m 1001.3,316.12 0,0.07 0,0.07 0,0.07 0,0.07 0,0.07 0,0.08 0,0.08 0,0.08 0,0.08 0,0.07 0,0.08 0,0.08 0,0.08 -0.1,0.08 0,0.07 0,0.07 -0.1,0.08 0,0.07 0,0.06 -0.1,0.07 0,0.06 -0.1,0.05 0,0.03 0,0.02 -0.1,0.03 0,0.02 0,0.03 -0.1,0.02 0,0.02 0,0.02 -0.1,0.01 0,0.02 -0.1,0.02 0,0.01 -0.1,0.01 0,0.01 -0.1,0.01 0,0.01 -0.1,0 0,0.01 -0.1,0 -0.1,0 c -0.74,0 -1.38,-0.65 -1.24,-1.3 v -0.65 l 0.7,-7.72 -6.37,4.64 c -0.46,0.25 -0.55,0.34 -0.91,0.34 -0.69,0 -1.34,-0.7 -1.34,-1.39 0,-0.79 0.5,-1 1,-1.25 l 7.07,-3.39 -6.87,-3.33 c -0.8,-0.4 -1.2,-0.6 -1.2,-1.35 0,-0.74 0.65,-1.4 1.34,-1.4 0.36,0 0.45,0 1.7,0.96 l 5.58,4.03 -0.75,-8.38 c 0,-1.04 0.89,-1.29 1.29,-1.29 0.6,0 1.3,0.36 1.3,1.29 l -0.7,8.38 6.4,-4.64 c 0.4,-0.24 0.5,-0.35 0.9,-0.35 0.7,0 1.3,0.71 1.3,1.4 0,0.75 -0.4,1 -1,1.29 -3,1.5 -3.1,1.5 -7,3.35 l 6.8,3.34 c 0.8,0.39 1.2,0.59 1.2,1.34 0,0.75 -0.6,1.39 -1.3,1.39 -0.4,0 -0.5,0 -1.7,-0.95 l -5.6,-4.03 z"
         inkscape:connector-curvature="0"
         style="fill:#ffffff;stroke-width:0" /><path
         id="path15505"
         d="m 1049.3,328.87 0,0 0,0.01 0,0 0,0.02 0,0.01 0,0.01 0,0.02 0,0.02 0,0.02 0,0.02 0,0.02 0,0.02 0,0.02 0,0.03 -0.1,0.02 0,0.03 0,0.02 0,0.03 0,0.02 0,0.02 -0.1,0.03 0,0.01 0,0.01 0,0.01 0,0.01 0,0.01 0,0.01 -0.1,0.01 0,0.01 0,0.01 0,0.01 0,0 0,0.01 -0.1,0.01 0,0.01 0,0 0,0.01 -0.1,0 0,0.01 0,0 0,0 -0.1,0 0,0.01 0,0 0,0 c -0.8,0 -5.5,-0.46 -6.4,-0.55 -0.4,-0.05 -0.7,-0.3 -0.7,-0.95 0,-0.6 0.5,-0.6 1.2,-0.6 2.4,0 2.5,-0.34 2.5,-0.84 l -0.1,-1 -3,-11.81 c -0.9,1.84 -2.4,3.19 -4.6,3.19 l 0,-1.1 c 3.3,0 4,-4.08 4,-4.37 0,-0.32 -0.1,-0.61 -0.2,-0.86 l -2.5,-9.77 c -0.2,-0.89 -0.2,-0.98 -1,-1.84 -2.1,-2.74 -4.2,-3.53 -5.6,-3.53 -2.5,0 -3.2,2.73 -3.2,4.68 0,2.49 1.6,8.61 2.8,10.91 1.5,2.94 3.8,4.78 5.7,4.78 l 0,1.1 c -5.8,0 -12,-7.32 -12,-14.6 0,-4.69 2.7,-7.97 6.6,-7.97 1,0 3.5,0.21 6.5,3.74 0.4,-2.1 2.1,-3.74 4.5,-3.74 1.8,0 2.9,1.14 3.7,2.74 0.9,1.79 1.5,4.84 1.5,4.93 0,0.5 -0.4,0.5 -0.6,0.5 -0.5,0 -0.5,-0.2 -0.7,-0.9 -0.8,-3.24 -1.7,-6.17 -3.8,-6.17 -1.3,0 -1.5,1.29 -1.5,2.29 0,1.19 0.1,1.55 0.3,2.39 z"
         inkscape:connector-curvature="0"
         style="fill:#ffffff;stroke-width:0" /><path
         id="path15507"
         d="m 1058.2,290.97 0,-0.11 -0.1,-0.12 0,-0.12 -0.1,-0.12 0,-0.12 -0.1,-0.13 0,-0.13 -0.1,-0.12 -0.1,-0.13 -0.1,-0.13 0,-0.13 -0.1,-0.13 -0.1,-0.12 -0.1,-0.12 -0.1,-0.12 -0.1,-0.12 -0.1,-0.12 -0.1,-0.11 -0.1,-0.1 -0.2,-0.1 -0.1,-0.1 -0.1,-0.09 -0.1,-0.08 -0.2,-0.08 -0.1,-0.07 -0.1,-0.06 -0.2,-0.06 -0.1,-0.04 -0.2,-0.04 -0.1,-0.02 -0.2,-0.02 -0.2,0 c -0.1,0 -1.1,0 -1.9,0.48 1.5,0.45 1.6,1.72 1.6,1.92 0,0.77 -0.6,1.3 -1.4,1.3 -1,0 -2,-0.84 -2,-2.14 0,-1.74 1.9,-2.53 3.6,-2.53 1.7,0 3.1,1 4,2.47 0.8,-1.85 2.7,-2.47 4.1,-2.47 4,0 6.1,4.34 6.1,5.33 0,0.45 -0.4,0.45 -0.5,0.45 -0.5,0 -0.5,-0.17 -0.7,-0.6 -0.7,-2.4 -2.8,-4.21 -4.8,-4.21 -1.4,0 -2.1,0.93 -2.1,2.26 0,0.91 0.9,4.08 1.8,7.95 0.7,2.68 2.3,3.55 3.4,3.55 0.1,0 1.2,0 1.9,-0.48 -1.1,-0.31 -1.5,-1.3 -1.5,-1.92 0,-0.77 0.6,-1.29 1.4,-1.29 0.8,0 1.9,0.66 1.9,2.13 0,1.95 -2.2,2.53 -3.6,2.53 -1.7,0 -3.1,-1.14 -3.9,-2.47 -0.6,1.44 -2.2,2.47 -4.2,2.47 -3.9,0 -6.1,-4.28 -6.1,-5.33 0,-0.45 0.5,-0.45 0.6,-0.45 0.4,0 0.5,0.14 0.6,0.59 0.9,2.72 3.1,4.22 4.8,4.22 1.2,0 2.1,-0.62 2.1,-2.29 0,-0.71 -0.4,-2.44 -0.7,-3.63 z"
         inkscape:connector-curvature="0"
         style="fill:#ffffff;stroke-width:0" /><path
         id="path15509"
         d="m 1091.4,300.42 0.1,0.02 0,0.03 0,0.02 0,0.02 0,0.02 0,0.02 0,0.03 0,0.04 0,0.03 0,0.04 0,0.03 0,0.02 0,0.03 0.1,0.03 0,0.02 0,0.02 0,0.02 0,0.02 0,0.02 0,0.02 0,0.02 0,0.02 0,0.02 0,0.03 0,0.03 0,0.04 0,0.03 0,0.02 0,0.02 0,0.02 0,0.02 c 0,0.69 -0.6,1.11 -1.2,1.11 -0.3,0 -1,-0.18 -1.4,-0.83 -0.1,-0.22 -0.4,-1.33 -0.6,-2.03 l -0.7,-2.89 c -0.2,-0.83 -1.3,-5.22 -1.4,-5.61 0,0 -1.5,-3.03 -4.2,-3.03 -2.4,0 -2.4,2.26 -2.4,2.89 0,1.89 0.8,4.08 1.8,6.76 0.4,1.11 0.6,1.53 0.6,2.13 0,1.67 -1.4,2.95 -3.3,2.95 -3.5,0 -5.1,-4.73 -5.1,-5.33 0,-0.45 0.5,-0.45 0.6,-0.45 0.5,0 0.5,0.17 0.6,0.56 0.9,2.89 2.4,4.25 3.8,4.25 0.6,0 0.9,-0.39 0.9,-1.22 0,-0.79 -0.4,-1.56 -0.5,-2.01 -1.7,-4.25 -2,-5.55 -2,-7.08 0,-0.59 0,-2.24 1.3,-3.34 1.1,-0.91 2.6,-1.08 3.5,-1.08 1.4,0 2.7,0.51 3.8,1.56 -0.5,-1.92 -0.8,-3.38 -2.3,-5.12 -0.9,-1.08 -2.3,-2.22 -4.2,-2.22 -0.2,0 -1.9,0 -2.6,1.14 1.9,0.2 1.9,1.89 1.9,1.92 0,1.11 -1,1.31 -1.4,1.31 -0.8,0 -2,-0.69 -2,-2.3 0,-1.76 1.7,-3.06 4.1,-3.06 3.6,0 7.9,2.72 8.9,7.08 z"
         inkscape:connector-curvature="0"
         style="fill:#ffffff;stroke-width:0" /><path
         id="path15511"
         d="m 1099.3,290.34 0.2,0.17 0.1,0.17 0.2,0.16 0.2,0.17 0.1,0.17 0.1,0.09 0.1,0.1 0.1,0.09 0.1,0.1 0.1,0.1 0.2,0.11 0.1,0.11 0.1,0.11 0.2,0.12 0.1,0.13 0.2,0.13 0.1,0.14 0.2,0.14 0.2,0.15 0.1,0.15 0.2,0.17 0.3,0.17 0.2,0.18 0.2,0.19 0.3,0.2 0.2,0.2 0.3,0.22 c 0.7,0.6 3.3,2.69 4.3,3.66 2.2,2.09 3.5,3.87 3.5,4.29 0,0.41 -0.5,0.41 -0.6,0.41 -0.3,0 -0.4,-0.06 -0.6,-0.34 -1.1,-1.6 -1.8,-2.13 -2.6,-2.13 -0.5,0 -1,0.03 -2,1.05 -1.2,1.19 -2,1.42 -2.8,1.42 -2.8,0 -4.7,-3.03 -4.7,-4.06 0,-0.33 0.4,-0.42 0.6,-0.42 0.5,0 0.5,0.09 0.7,0.48 0.5,1.22 2.4,1.3 3,1.3 0.8,0 1.7,-0.22 2.2,-0.33 1.9,-0.41 2.1,-0.41 3,-0.41 -0.9,-0.95 -1.5,-1.58 -4.8,-4.22 -2.7,-2.15 -3.7,-3.03 -4.3,-3.73 -2.1,-2.05 -3.1,-3.58 -3.1,-3.91 0,-0.4 0.4,-0.4 0.6,-0.4 0.3,0 0.4,0.06 0.6,0.34 0.9,1.33 2,2.13 3.1,2.13 0.5,0 1,-0.03 1.9,-0.91 1.1,-1.05 1.8,-1.56 2.9,-1.56 3.7,0 6.1,4.22 6.1,5.39 0,0.42 -0.4,0.45 -0.6,0.45 -0.4,0 -0.5,-0.17 -0.6,-0.55 -0.7,-1.75 -2.7,-2.57 -4.5,-2.57 -0.8,0 -1.6,0.17 -2.5,0.37 -1.6,0.35 -1.9,0.35 -2.5,0.35 -0.1,0 -0.6,0 -0.8,-0.04 z"
         inkscape:connector-curvature="0"
         style="fill:#ffffff;stroke-width:0" /><path
         id="path15513"
         d="m 1148.7,341.44 0,3.67 -0.2,3.67 -0.3,3.66 -0.4,3.64 -0.5,3.61 -0.7,3.58 -0.8,3.54 -0.9,3.49 -1.1,3.44 -0.6,1.69 -0.6,1.68 -0.7,1.66 -0.7,1.65 -0.8,1.62 -0.8,1.61 -0.8,1.58 -0.9,1.56 -0.9,1.54 -1,1.51 -1,1.49 -1.1,1.47 -1.1,1.43 -1.2,1.41 c -1,1.16 -2.9,3.19 -4.9,4.99 -0.6,0.61 -0.7,0.61 -1.4,0.61 -0.6,0 -1.1,0 -1.1,-0.5 0,-0.2 0.2,-0.41 0.3,-0.5 1.8,-1.8 5.1,-5.14 8.4,-10.52 8.1,-12.86 11.7,-29.04 11.7,-48.23 0,-13.39 -1.8,-30.69 -10,-45.53 -3.9,-7.08 -8.1,-11.21 -10.2,-13.3 -0.1,-0.16 -0.2,-0.3 -0.2,-0.45 0,-0.5 0.5,-0.5 1.1,-0.5 0.7,0 0.8,0 1.5,0.75 16.7,15.2 21.9,38.01 21.9,58.98 z"
         inkscape:connector-curvature="0"
         style="fill:#ffffff;stroke-width:0" /><path
         id="path15515"
         d="m 1202.4,282.21 0,0.02 0,0.01 0,0.02 0,0.02 0,0.01 0,0.02 -0.1,0.02 0,0.01 0,0.02 0,0.01 0,0.01 0,0.02 0,0.01 0,0.02 0,0.01 0,0.01 0,0.03 0,0.02 -0.1,0.03 0,0.02 0,0.03 0,0.02 0,0.03 0,0.03 c -1.9,1.84 -5.2,5.17 -8.6,10.56 -8,12.85 -11.6,29.05 -11.6,48.22 0,13.41 1.8,30.69 10,45.55 3.9,7.06 8,11.15 10.2,13.34 0.2,0.16 0.2,0.25 0.2,0.41 0,0.5 -0.4,0.5 -1.1,0.5 -0.7,0 -0.8,0 -1.5,-0.75 -16.7,-15.2 -22,-38.02 -22,-59 0,-19.58 4.5,-39.3 17.2,-54.2 1,-1.15 2.9,-3.19 4.9,-4.99 0.6,-0.59 0.7,-0.59 1.4,-0.59 0.7,0 1.1,0 1.1,0.5 z"
         inkscape:connector-curvature="0"
         style="fill:#ffffff;stroke-width:0" /><path
         id="path15517"
         d="m 1375.3,394.53 0,0.06 0,0.05 0,0.05 0,0.05 0,0.05 0,0.05 0,0.04 0,0.05 0,0.04 0,0.04 0,0.04 0,0.04 0,0.04 0,0.04 0,0.03 0,0.03 0,0.07 0,0.06 0,0.05 0,0.05 -0.1,0.05 0,0.04 0,0.04 0,0.03 -0.1,0.04 0,0.02 0,0.03 -0.1,0.02 0,0.02 0,0.01 -0.1,0.01 0,0 0,0.01 0,0.01 -0.1,0 0,0.01 0,0 -0.1,0.01 0,0 0,0 -0.1,0.01 0,0 0,0 -0.1,0 0,0 -0.1,0.01 0,0 -0.1,0 0,0 -0.1,0 0,0 c -3.1,-3.19 -7.5,-3.19 -9.1,-3.19 v -1.55 c 1,0 4,0 6.5,1.3 v -25.81 c 0,-1.8 -0.1,-2.39 -4.6,-2.39 h -1.6 v -1.55 c 1.8,0.16 6.1,0.16 8.1,0.16 2,0 6.3,0 8.1,-0.16 v 1.55 h -1.6 c -4.5,0 -4.7,0.54 -4.7,2.39 z"
         inkscape:connector-curvature="0"
         style="fill:#ffffff;stroke-width:0" /><polyline
         id="polyline15519"
         points="1210,340 1536,340 1536,342.04 1210,342.04 "
         style="fill:#ffffff;fill-rule:nonzero;stroke-width:0" /><path
         id="path15521"
         d="m 1224.7,326.73 0,0.05 0,0.06 0,0.05 0,0.05 0,0.05 0,0.05 0,0.04 0,0.05 0,0.04 0,0.04 0,0.04 0,0.04 0,0.04 0,0.03 0,0.04 0,0.03 0,0.07 0,0.06 0,0.05 0,0.05 -0.1,0.05 0,0.04 0,0.04 0,0.03 -0.1,0.04 0,0.02 0,0.03 -0.1,0.02 0,0.02 0,0.01 -0.1,0.01 0,0 0,0.01 0,0.01 -0.1,0 0,0.01 0,0 -0.1,0.01 0,0 0,0 -0.1,0.01 0,0 0,0 -0.1,0 0,0 -0.1,0 0,0.01 -0.1,0 0,0 -0.1,0 0,0 c -3.1,-3.19 -7.5,-3.19 -9.1,-3.19 v -1.55 c 1,0 3.9,0 6.5,1.3 v -25.81 c 0,-1.8 -0.1,-2.39 -4.6,-2.39 h -1.6 v -1.55 c 1.8,0.16 6.1,0.16 8.1,0.16 2,0 6.3,0 8,-0.16 v 1.55 h -1.5 c -4.5,0 -4.7,0.54 -4.7,2.39 z"
         inkscape:connector-curvature="0"
         style="fill:#ffffff;stroke-width:0" /><path
         id="path15523"
         d="m 1266.4,306.29 h 14 c 0.7,0 1.6,0 1.6,1 0,1 -0.9,1 -1.6,1 h -14 v 13.96 c 0,0.68 0,1.64 -1,1.64 -0.9,0 -0.9,-0.96 -0.9,-1.64 v -13.96 h -14 c -0.7,0 -1.6,0 -1.6,-1 0,-1 0.9,-1 1.6,-1 h 14 v -13.93 c 0,-0.71 0,-1.66 0.9,-1.66 1,0 1,0.95 1,1.66 z"
         inkscape:connector-curvature="0"
         style="fill:#ffffff;stroke-width:0" /><path
         id="path15525"
         d="m 1318.9,311.73 0,0.1 0,0.11 0.1,0.12 0,0.11 0,0.12 0.1,0.12 0,0.25 0.1,0.25 0,0.25 0.1,0.24 0.1,0.25 0,0.11 0,0.12 0,0.11 0.1,0.11 0,0.1 0,0.1 0,0.1 0.1,0.09 0,0.08 0,0.08 0,0.07 0,0.07 0,0.05 0,0.05 0,0.04 0,0.03 c 0,0.91 -0.7,1.35 -1.4,1.35 -0.6,0 -1.5,-0.39 -1.8,-1.39 -0.2,-0.35 -2.5,-9.86 -2.9,-11.16 -0.3,-1.5 -0.4,-2.39 -0.4,-3.3 0,-0.54 0,-0.64 0,-0.89 -1.1,-2.64 -2.6,-4.18 -4.6,-4.18 -3.9,0 -3.9,3.68 -3.9,4.53 0,1.59 0.2,3.54 2.5,9.67 0.6,1.48 0.9,2.19 0.9,3.19 0,2.23 -1.7,4.08 -4.1,4.08 -4.7,0 -6.6,-7.22 -6.6,-7.68 0,-0.5 0.5,-0.5 0.6,-0.5 0.5,0 0.6,0.11 0.8,0.91 1.4,4.62 3.3,6.17 5.1,6.17 0.4,0 1.2,-0.05 1.2,-1.64 0,-1.25 -0.6,-2.64 -0.9,-3.48 -2.2,-5.88 -2.8,-8.18 -2.8,-10.07 0,-4.53 3.3,-6.28 7.1,-6.28 0.8,0 3.2,0 5.2,3.49 1.3,-3.19 4.7,-3.49 6.2,-3.49 3.7,0 5.9,3.14 7.2,6.13 1.7,3.89 3.3,10.56 3.3,12.95 0,2.75 -1.4,3.49 -2.2,3.49 -1.2,0 -2.5,-1.3 -2.5,-2.4 0,-0.64 0.3,-0.93 0.8,-1.34 0.5,-0.55 1.8,-1.84 1.8,-4.23 0,-1.69 -1.5,-6.58 -2.8,-9.11 -1.3,-2.64 -3,-4.39 -5.5,-4.39 -2.3,0 -3.7,1.5 -3.7,4.32 0,1.41 0.4,2.96 0.6,3.65 z"
         inkscape:connector-curvature="0"
         style="fill:#ffffff;stroke-width:0" /><path
         id="path15527"
         d="m 1342.4,310.42 0,0.01 0,0 0,0 0,0.01 0,0 0,0.01 0,0.01 0,0 0,0.01 0,0.01 0.1,0.01 0,0.02 0,0.02 0,0.02 0,0.02 0,0.02 0,0.02 0,0.03 0,0.02 0,0.05 0,0.04 0,0.03 0,0.02 0,0.02 0,0.02 0,0.02 0.1,0.02 0,0.02 0,0.01 0,0.01 0,0.01 0,0 0,0.01 0,0 0,0.01 0,0 0,0.01 0,0 0,0 0,0.01 0,0 c 0,0.19 -0.2,0.5 -0.6,0.5 -0.7,0 -3.6,-0.28 -4.4,-0.36 -0.3,-0.03 -0.8,-0.06 -0.8,-0.8 0,-0.48 0.5,-0.48 0.9,-0.48 1.7,0 1.7,-0.25 1.7,-0.53 0,-0.24 -0.1,-0.46 -0.2,-0.77 l -4.9,-19.72 c -0.2,-0.62 -0.2,-0.69 -0.2,-0.76 0,-0.52 0.5,-1.11 1.2,-1.11 0.4,0 1.1,0.17 1.5,0.9 0,0.21 0.4,1.46 0.5,2.19 l 0.8,3.11 c 0.1,0.52 0.5,1.84 0.6,2.36 0.4,1.33 0.4,1.36 1,2.48 1.2,1.71 2.9,3.69 5.6,3.69 2,0 2.1,-1.61 2.1,-2.44 0,-2.09 -1.5,-5.95 -2.1,-7.42 -0.4,-0.98 -0.5,-1.29 -0.5,-1.89 0,-1.84 1.5,-2.98 3.3,-2.98 3.5,0 5,4.79 5,5.33 0,0.45 -0.4,0.45 -0.5,0.45 -0.5,0 -0.6,-0.2 -0.7,-0.6 -0.8,-2.78 -2.3,-4.21 -3.7,-4.21 -0.7,0 -0.9,0.48 -0.9,1.21 0,0.8 0.2,1.26 0.8,2.83 0.5,1.08 1.9,4.77 1.9,6.72 0,0.56 0,2.03 -1.3,3.03 -0.6,0.46 -1.6,0.94 -3.2,0.94 -2.6,0 -4.4,-1.39 -5.7,-2.89 z"
         inkscape:connector-curvature="0"
         style="fill:#ffffff;stroke-width:0" /><path
         id="path15529"
         d="m 1369.8,300.38 -0.1,-0.03 -0.1,-0.02 0,-0.03 -0.1,-0.02 -0.1,-0.04 -0.1,-0.03 0,-0.04 -0.1,-0.04 -0.1,-0.04 0,-0.04 -0.1,-0.05 -0.1,-0.05 0,-0.05 -0.1,-0.05 0,-0.05 -0.1,-0.06 0,-0.05 -0.1,-0.06 0,-0.06 0,-0.06 -0.1,-0.06 0,-0.06 0,-0.06 -0.1,-0.06 0,-0.07 0,-0.06 0,-0.07 0,-0.06 0,-0.07 -0.1,-0.06 0,-0.07 0,-0.06 c 0,-0.81 0.8,-1.13 1.2,-1.13 0.3,0 1.7,0.22 1.7,1.99 0,2.27 -2.5,3.03 -4.6,3.03 -5.5,0 -6.5,-4 -6.5,-5.08 0,-1.29 0.8,-2.12 1.2,-2.54 0.9,-0.71 1.6,-0.83 4,-1.25 0.7,-0.15 2.9,-0.57 2.9,-2.3 0,-0.59 -0.3,-1.92 -1.8,-2.8 -1.3,-0.76 -3.1,-0.76 -3.5,-0.76 -1.4,0 -3.4,0.31 -4.2,1.47 1.2,0.14 2,1 2,1.98 0,0.87 -0.7,1.28 -1.4,1.28 -1,0 -2,-0.8 -2,-2.33 0,-2.09 2.2,-3.37 5.6,-3.37 6.4,0 7.6,4.39 7.6,5.75 0,3.2 -3.6,3.83 -4.8,4.08 -0.3,0.06 -1.2,0.2 -1.4,0.26 -1.3,0.25 -1.9,0.99 -1.9,1.75 0,0.8 0.6,1.74 1.4,2.24 0.9,0.59 2.1,0.65 2.7,0.65 0.7,0 2.6,-0.11 3.3,-1.29 z"
         inkscape:connector-curvature="0"
         style="fill:#ffffff;stroke-width:0" /><path
         id="path15531"
         d="m 1392.2,299.94 0,0.12 0,0.12 0,0.12 0,0.11 0,0.11 0,0.11 0,0.1 0,0.1 0,0.1 -0.1,0.09 0,0.09 0,0.09 0,0.08 -0.1,0.08 0,0.07 0,0.08 0,0.07 -0.1,0.07 0,0.06 0,0.06 -0.1,0.06 0,0.06 0,0.05 -0.1,0.06 0,0.05 0,0.04 -0.1,0.09 -0.1,0.08 -0.1,0.07 -0.1,0.06 0,0.05 -0.1,0.05 -0.1,0.04 -0.1,0.04 0,0.02 -0.1,0.03 -0.1,0.02 0,0.01 -0.1,0.02 0,0 -0.1,0.01 0,0 -0.1,0.01 0,0 0,0 c -0.9,0 -1.9,-0.96 -1.9,-1.86 0,-0.58 0.4,-0.86 0.6,-1.08 0.6,-0.48 1.3,-1.39 1.3,-2.78 0,-1.56 -2.3,-9.06 -6.4,-9.06 -2.9,0 -2.9,2.51 -2.9,3.11 0,1.59 0.7,3.54 2,6.78 0.2,0.73 0.4,1.26 0.4,1.86 0,1.81 -1.5,2.98 -3.3,2.98 -3.5,0 -5,-4.76 -5,-5.33 0,-0.45 0.5,-0.45 0.6,-0.45 0.5,0 0.5,0.17 0.6,0.56 0.8,2.86 2.3,4.25 3.7,4.25 0.6,0 0.9,-0.39 0.9,-1.22 0,-0.79 -0.3,-1.53 -0.6,-2.33 -1.5,-3.87 -1.9,-5.37 -1.9,-6.62 0,-3.45 2.7,-4.56 5.3,-4.56 5.9,0 8.3,10.14 8.3,13 z"
         inkscape:connector-curvature="0"
         style="fill:#ffffff;stroke-width:0" /><path
         id="path15533"
         d="m 1422.1,316.12 0,0.07 0,0.07 0.1,0.07 0,0.07 0,0.07 0,0.08 0,0.08 -0.1,0.08 0,0.08 0,0.07 0,0.08 0,0.08 0,0.08 0,0.08 -0.1,0.07 0,0.07 0,0.08 0,0.07 -0.1,0.06 0,0.07 -0.1,0.06 0,0.05 -0.1,0.03 0,0.02 0,0.03 -0.1,0.02 0,0.03 0,0.02 -0.1,0.02 0,0.02 0,0.01 -0.1,0.02 0,0.02 -0.1,0.01 0,0.01 -0.1,0.01 0,0.01 -0.1,0.01 0,0 -0.1,0.01 0,0 -0.1,0 c -0.8,0 -1.4,-0.65 -1.3,-1.3 v -0.65 l 0.7,-7.72 -6.4,4.64 c -0.4,0.25 -0.5,0.34 -0.9,0.34 -0.7,0 -1.3,-0.7 -1.3,-1.39 0,-0.79 0.5,-1 1,-1.25 l 7.1,-3.39 -6.9,-3.33 c -0.8,-0.4 -1.2,-0.6 -1.2,-1.35 0,-0.74 0.6,-1.4 1.3,-1.4 0.4,0 0.5,0 1.7,0.96 l 5.6,4.03 -0.7,-8.38 c 0,-1.04 0.8,-1.29 1.2,-1.29 0.6,0 1.4,0.36 1.4,1.29 l -0.8,8.38 6.4,-4.64 c 0.5,-0.24 0.6,-0.35 0.9,-0.35 0.7,0 1.4,0.71 1.4,1.4 0,0.75 -0.5,1 -1.1,1.29 -3,1.5 -3.1,1.5 -7,3.35 l 6.9,3.34 c 0.8,0.39 1.2,0.59 1.2,1.34 0,0.75 -0.7,1.39 -1.4,1.39 -0.3,0 -0.4,0 -1.7,-0.95 l -5.6,-4.03 z"
         inkscape:connector-curvature="0"
         style="fill:#ffffff;stroke-width:0" /><path
         id="path15535"
         d="m 1470,328.87 0,0 0,0.01 0,0 0,0.02 0,0.01 0,0.01 0,0.02 0,0.02 0,0.02 0,0.02 0,0.02 0,0.02 0,0.02 0,0.03 0,0.02 0,0.03 -0.1,0.02 0,0.03 0,0.02 0,0.02 0,0.03 0,0.01 -0.1,0.01 0,0.01 0,0.01 0,0.01 0,0.01 0,0.01 0,0.01 -0.1,0.01 0,0.01 0,0 0,0.01 0,0.01 -0.1,0.01 0,0 0,0.01 0,0 -0.1,0.01 0,0 0,0 0,0 -0.1,0.01 0,0 0,0 c -0.8,0 -5.5,-0.46 -6.3,-0.55 -0.5,-0.05 -0.8,-0.3 -0.8,-0.95 0,-0.6 0.5,-0.6 1.3,-0.6 2.3,0 2.4,-0.34 2.4,-0.84 l -0.1,-1 -3,-11.81 c -0.9,1.84 -2.3,3.19 -4.6,3.19 l 0.1,-1.1 c 3.2,0 3.9,-4.08 3.9,-4.37 0,-0.32 -0.1,-0.61 -0.1,-0.86 l -2.5,-9.77 c -0.3,-0.89 -0.3,-0.98 -1,-1.84 -2.2,-2.74 -4.3,-3.53 -5.7,-3.53 -2.4,0 -3.2,2.73 -3.2,4.68 0,2.49 1.6,8.61 2.8,10.91 1.5,2.94 3.8,4.78 5.8,4.78 l -0.1,1.1 c -5.8,0 -12,-7.32 -12,-14.6 0,-4.69 2.8,-7.97 6.6,-7.97 1,0 3.5,0.21 6.5,3.74 0.4,-2.1 2.2,-3.74 4.5,-3.74 1.8,0 2.9,1.14 3.7,2.74 0.9,1.79 1.5,4.84 1.5,4.93 0,0.5 -0.4,0.5 -0.6,0.5 -0.5,0 -0.5,-0.2 -0.7,-0.9 -0.8,-3.24 -1.7,-6.17 -3.7,-6.17 -1.4,0 -1.5,1.29 -1.5,2.29 0,1.19 0,1.55 0.2,2.39 z"
         inkscape:connector-curvature="0"
         style="fill:#ffffff;stroke-width:0" /><path
         id="path15537"
         d="m 1481.1,310.42 0,0.01 0,0 0,0 0,0.01 0.1,0 0,0.01 0,0.01 0,0 0,0.01 0,0.01 0,0.01 0,0.02 0,0.02 0,0.02 0,0.02 0,0.02 0,0.02 0,0.03 0,0.02 0,0.05 0,0.02 0,0.02 0,0.03 0.1,0.02 0,0.02 0,0.02 0,0.02 0,0.02 0,0.02 0,0.01 0,0.01 0,0.01 0,0 0,0.01 0,0 0,0.01 0,0 0,0.01 0,0 0,0 0,0.01 0,0 c 0,0.19 -0.2,0.5 -0.6,0.5 -0.7,0 -3.6,-0.28 -4.4,-0.36 -0.3,-0.03 -0.8,-0.06 -0.8,-0.8 0,-0.48 0.5,-0.48 0.9,-0.48 1.7,0 1.7,-0.25 1.7,-0.53 0,-0.24 -0.1,-0.46 -0.2,-0.77 l -4.9,-19.72 c -0.2,-0.62 -0.2,-0.69 -0.2,-0.76 0,-0.52 0.5,-1.11 1.2,-1.11 0.4,0 1.1,0.17 1.5,0.9 0.1,0.21 0.4,1.46 0.6,2.19 l 0.8,3.11 c 0.1,0.52 0.4,1.84 0.5,2.36 0.4,1.33 0.4,1.36 1.1,2.48 1.1,1.71 2.8,3.69 5.5,3.69 2,0 2.1,-1.61 2.1,-2.44 0,-2.09 -1.5,-5.95 -2.1,-7.42 -0.3,-0.98 -0.5,-1.29 -0.5,-1.89 0,-1.84 1.6,-2.98 3.3,-2.98 3.5,0 5,4.79 5,5.33 0,0.45 -0.4,0.45 -0.5,0.45 -0.5,0 -0.5,-0.2 -0.7,-0.6 -0.8,-2.78 -2.3,-4.21 -3.7,-4.21 -0.7,0 -0.8,0.48 -0.8,1.21 0,0.8 0.1,1.26 0.8,2.83 0.4,1.08 1.8,4.77 1.8,6.72 0,0.56 0,2.03 -1.3,3.03 -0.6,0.46 -1.6,0.94 -3.2,0.94 -2.6,0 -4.4,-1.39 -5.7,-2.89 z"
         inkscape:connector-curvature="0"
         style="fill:#ffffff;stroke-width:0" /><path
         id="path15539"
         d="m 1508.5,300.38 -0.1,-0.03 0,-0.02 -0.1,-0.03 -0.1,-0.02 -0.1,-0.04 0,-0.03 -0.1,-0.04 -0.1,-0.04 0,-0.04 -0.1,-0.04 -0.1,-0.05 0,-0.05 -0.1,-0.05 0,-0.05 -0.1,-0.05 0,-0.06 -0.1,-0.05 0,-0.06 -0.1,-0.06 0,-0.06 0,-0.06 -0.1,-0.06 0,-0.06 0,-0.06 -0.1,-0.07 0,-0.06 0,-0.07 0,-0.06 0,-0.07 0,-0.06 0,-0.07 0,-0.06 c 0,-0.81 0.7,-1.13 1.1,-1.13 0.4,0 1.7,0.22 1.7,1.99 0,2.27 -2.5,3.03 -4.6,3.03 -5.5,0 -6.5,-4 -6.5,-5.08 0,-1.29 0.8,-2.12 1.3,-2.54 0.9,-0.71 1.5,-0.83 3.9,-1.25 0.7,-0.15 3,-0.57 3,-2.3 0,-0.59 -0.4,-1.92 -1.9,-2.8 -1.3,-0.76 -3,-0.76 -3.5,-0.76 -1.4,0 -3.4,0.31 -4.2,1.47 1.2,0.14 2,1 2,1.98 0,0.87 -0.6,1.28 -1.4,1.28 -1,0 -2,-0.8 -2,-2.33 0,-2.09 2.2,-3.37 5.6,-3.37 6.4,0 7.6,4.39 7.6,5.75 0,3.2 -3.5,3.83 -4.8,4.08 -0.3,0.06 -1.2,0.2 -1.4,0.26 -1.3,0.25 -1.9,0.99 -1.9,1.75 0,0.8 0.6,1.74 1.4,2.24 0.9,0.59 2.1,0.65 2.7,0.65 0.7,0 2.6,-0.11 3.3,-1.29 z"
         inkscape:connector-curvature="0"
         style="fill:#ffffff;stroke-width:0" /><path
         id="path15541"
         d="m 1531,299.94 0,0.12 0,0.12 -0.1,0.12 0,0.11 0,0.11 0,0.11 0,0.1 0,0.1 0,0.1 0,0.09 -0.1,0.09 0,0.09 0,0.08 0,0.08 -0.1,0.07 0,0.08 0,0.07 -0.1,0.07 0,0.06 0,0.06 -0.1,0.06 0,0.06 0,0.05 -0.1,0.06 0,0.05 0,0.04 -0.1,0.09 -0.1,0.08 -0.1,0.07 -0.1,0.06 0,0.05 -0.1,0.05 -0.1,0.04 -0.1,0.04 0,0.02 -0.1,0.03 -0.1,0.02 0,0.01 -0.1,0.02 0,0 -0.1,0.01 0,0 -0.1,0.01 0,0 0,0 c -0.9,0 -1.9,-0.96 -1.9,-1.86 0,-0.58 0.4,-0.86 0.6,-1.08 0.6,-0.48 1.3,-1.39 1.3,-2.78 0,-1.56 -2.3,-9.06 -6.4,-9.06 -2.9,0 -2.9,2.51 -2.9,3.11 0,1.59 0.7,3.54 2,6.78 0.3,0.73 0.5,1.26 0.5,1.86 0,1.81 -1.6,2.98 -3.4,2.98 -3.4,0 -5,-4.76 -5,-5.33 0,-0.45 0.5,-0.45 0.6,-0.45 0.5,0 0.5,0.17 0.6,0.56 0.8,2.86 2.3,4.25 3.7,4.25 0.6,0 0.9,-0.39 0.9,-1.22 0,-0.79 -0.3,-1.53 -0.6,-2.33 -1.5,-3.87 -1.9,-5.37 -1.9,-6.62 0,-3.45 2.7,-4.56 5.4,-4.56 5.8,0 8.3,10.14 8.3,13 z"
         inkscape:connector-curvature="0"
         style="fill:#ffffff;stroke-width:0" /><path
         id="path15543"
         d="m 1568.4,341.44 -0.1,3.67 -0.1,3.67 -0.3,3.66 -0.4,3.64 -0.6,3.61 -0.6,3.58 -0.8,3.54 -0.9,3.49 -1.1,3.44 -0.6,1.69 -0.7,1.68 -0.7,1.66 -0.7,1.65 -0.7,1.62 -0.8,1.61 -0.9,1.58 -0.9,1.56 -0.9,1.54 -1,1.51 -1,1.49 -1.1,1.47 -1.1,1.43 -1.2,1.41 c -1,1.16 -2.8,3.19 -4.9,4.99 -0.6,0.61 -0.7,0.61 -1.4,0.61 -0.6,0 -1,0 -1,-0.5 0,-0.2 0.2,-0.41 0.3,-0.5 1.7,-1.8 5,-5.14 8.4,-10.52 8,-12.86 11.6,-29.04 11.6,-48.23 0,-13.39 -1.8,-30.69 -10,-45.53 -3.9,-7.08 -8,-11.21 -10.1,-13.3 -0.1,-0.16 -0.2,-0.3 -0.2,-0.45 0,-0.5 0.4,-0.5 1,-0.5 0.7,0 0.8,0 1.5,0.75 16.8,15.2 22,38.01 22,58.98 z"
         inkscape:connector-curvature="0"
         style="fill:#ffffff;stroke-width:0" /><path
         id="path15545"
         d="m 1621.9,282.21 0,0.02 0,0.01 0,0.02 0,0.02 0,0.01 0,0.02 0,0.02 0,0.01 0,0.02 0,0.01 -0.1,0.01 0,0.02 0,0.01 0,0.02 0,0.01 0,0.01 0,0.03 0,0.02 0,0.03 -0.1,0.02 0,0.03 0,0.02 0,0.03 0,0.03 c -1.9,1.84 -5.2,5.17 -8.5,10.56 -8.1,12.85 -11.7,29.05 -11.7,48.22 0,13.41 1.8,30.69 10,45.55 3.9,7.06 8,11.15 10.2,13.34 0.2,0.16 0.2,0.25 0.2,0.41 0,0.5 -0.4,0.5 -1.1,0.5 -0.7,0 -0.8,0 -1.5,-0.75 -16.7,-15.2 -21.9,-38.02 -21.9,-59 0,-19.58 4.4,-39.3 17.1,-54.2 1,-1.15 2.9,-3.19 4.9,-4.99 0.6,-0.59 0.7,-0.59 1.4,-0.59 0.7,0 1.1,0 1.1,0.5 z"
         inkscape:connector-curvature="0"
         style="fill:#ffffff;stroke-width:0" /><path
         id="path15547"
         d="m 1756.2,394.53 0,0.06 0,0.05 0,0.05 0,0.05 0,0.05 0,0.05 0,0.04 0,0.05 0,0.04 0,0.04 0,0.04 0,0.04 0,0.04 0,0.04 0,0.03 0,0.03 0,0.07 0,0.06 0,0.05 -0.1,0.05 0,0.05 0,0.04 0,0.04 0,0.03 -0.1,0.04 0,0.02 0,0.03 -0.1,0.02 0,0.02 0,0.01 -0.1,0.01 0,0 0,0.01 -0.1,0.01 0,0 0,0.01 0,0 -0.1,0.01 0,0 0,0 -0.1,0.01 0,0 -0.1,0 0,0 0,0 -0.1,0.01 0,0 -0.1,0 0,0 -0.1,0 0,0 c -3.1,-3.19 -7.5,-3.19 -9.1,-3.19 v -1.55 c 1,0 3.9,0 6.5,1.3 v -25.81 c 0,-1.8 -0.1,-2.39 -4.6,-2.39 h -1.6 v -1.55 c 1.7,0.16 6.1,0.16 8.1,0.16 2,0 6.3,0 8,-0.16 v 1.55 h -1.6 c -4.4,0 -4.6,0.54 -4.6,2.39 z"
         inkscape:connector-curvature="0"
         style="fill:#ffffff;stroke-width:0" /><polyline
         id="polyline15549"
         points="1630,340 1878.8,340 1878.8,342.04 1630,342.04 "
         style="fill:#ffffff;fill-rule:nonzero;stroke-width:0" /><path
         id="path15551"
         d="m 1644.4,326.73 0,0.05 0,0.06 0,0.05 0,0.05 0,0.05 0,0.05 0,0.04 0,0.05 0,0.04 0,0.04 0,0.04 0,0.04 0,0.04 -0.1,0.03 0,0.04 0,0.03 0,0.07 0,0.06 0,0.05 0,0.05 0,0.05 0,0.04 -0.1,0.04 0,0.03 0,0.04 0,0.02 -0.1,0.03 0,0.02 -0.1,0.02 0,0.01 0,0.01 0,0 -0.1,0.01 0,0.01 0,0 -0.1,0.01 0,0 0,0.01 -0.1,0 0,0 0,0.01 -0.1,0 0,0 0,0 -0.1,0 0,0 -0.1,0.01 0,0 -0.1,0 0,0 -0.1,0 c -3.1,-3.19 -7.4,-3.19 -9,-3.19 v -1.55 c 1,0 3.9,0 6.5,1.3 v -25.81 c 0,-1.8 -0.2,-2.39 -4.6,-2.39 h -1.7 v -1.55 c 1.8,0.16 6.1,0.16 8.1,0.16 2,0 6.3,0 8.1,-0.16 v 1.55 h -1.6 c -4.5,0 -4.6,0.54 -4.6,2.39 z"
         inkscape:connector-curvature="0"
         style="fill:#ffffff;stroke-width:0" /><path
         id="path15553"
         d="m 1686,306.29 h 13.9 c 0.7,0 1.6,0 1.6,1 0,1 -0.9,1 -1.6,1 H 1686 v 13.96 c 0,0.68 0,1.64 -1,1.64 -1,0 -1,-0.96 -1,-1.64 v -13.96 h -14 c -0.7,0 -1.6,0 -1.6,-1 0,-1 0.9,-1 1.6,-1 h 14 v -13.93 c 0,-0.71 0,-1.66 1,-1.66 1,0 1,0.95 1,1.66 z"
         inkscape:connector-curvature="0"
         style="fill:#ffffff;stroke-width:0" /><path
         id="path15555"
         d="m 1738.5,311.73 0.1,0.1 0,0.11 0,0.12 0,0.11 0.1,0.12 0,0.12 0.1,0.25 0,0.25 0.1,0.25 0,0.24 0.1,0.25 0,0.11 0.1,0.12 0,0.11 0,0.11 0,0.1 0.1,0.1 0,0.1 0,0.09 0,0.08 0,0.08 0,0.07 0.1,0.07 0,0.05 0,0.05 0,0.04 0,0.03 c 0,0.91 -0.7,1.35 -1.5,1.35 -0.6,0 -1.5,-0.39 -1.8,-1.39 -0.2,-0.35 -2.5,-9.86 -2.8,-11.16 -0.4,-1.5 -0.5,-2.39 -0.5,-3.3 0,-0.54 0,-0.64 0.1,-0.89 -1.2,-2.64 -2.7,-4.18 -4.6,-4.18 -4,0 -4,3.68 -4,4.53 0,1.59 0.2,3.54 2.6,9.67 0.5,1.48 0.8,2.19 0.8,3.19 0,2.23 -1.6,4.08 -4.1,4.08 -4.7,0 -6.6,-7.22 -6.6,-7.68 0,-0.5 0.5,-0.5 0.7,-0.5 0.5,0 0.5,0.11 0.8,0.91 1.3,4.62 3.2,6.17 5,6.17 0.4,0 1.2,-0.05 1.2,-1.64 0,-1.25 -0.5,-2.64 -0.9,-3.48 -2.1,-5.88 -2.8,-8.18 -2.8,-10.07 0,-4.53 3.4,-6.28 7.1,-6.28 0.9,0 3.2,0 5.2,3.49 1.3,-3.19 4.7,-3.49 6.2,-3.49 3.8,0 6,3.14 7.3,6.13 1.6,3.89 3.2,10.56 3.2,12.95 0,2.75 -1.3,3.49 -2.1,3.49 -1.3,0 -2.5,-1.3 -2.5,-2.4 0,-0.64 0.3,-0.93 0.7,-1.34 0.6,-0.55 1.8,-1.84 1.8,-4.23 0,-1.69 -1.4,-6.58 -2.7,-9.11 -1.3,-2.64 -3.1,-4.39 -5.5,-4.39 -2.4,0 -3.7,1.5 -3.7,4.32 0,1.41 0.3,2.96 0.5,3.65 z"
         inkscape:connector-curvature="0"
         style="fill:#ffffff;stroke-width:0" /><path
         id="path15557"
         d="m 1755.4,289.47 0,-0.04 0,-0.05 0,-0.04 0,-0.05 -0.1,-0.05 0,-0.06 0,-0.05 0,-0.05 0,-0.11 -0.1,-0.11 0,-0.12 0,-0.11 0,-0.05 0,-0.05 0,-0.05 -0.1,-0.05 0,-0.05 0,-0.04 0,-0.05 0,-0.04 0,-0.03 0,-0.04 0,-0.03 0,-0.03 0,-0.02 0,-0.02 0,-0.01 0,-0.01 0,-0.01 0,0 c 0,-0.77 0.6,-1.11 1.1,-1.11 0.7,0 1.2,0.45 1.4,0.76 0.2,0.32 0.5,1.42 0.6,2.16 0.2,0.66 0.6,2.26 0.8,3.14 0.2,0.77 0.4,1.53 0.6,2.33 0.4,1.44 0.5,1.7 1.5,3.14 0.9,1.39 2.6,3.2 5.2,3.2 2,0 2,-1.78 2,-2.44 0,-2.09 -1.5,-5.95 -2,-7.42 -0.4,-0.98 -0.5,-1.29 -0.5,-1.89 0,-1.84 1.5,-2.98 3.3,-2.98 3.5,0 5,4.79 5,5.33 0,0.45 -0.5,0.45 -0.6,0.45 -0.5,0 -0.5,-0.2 -0.6,-0.6 -0.8,-2.78 -2.3,-4.21 -3.7,-4.21 -0.8,0 -0.9,0.48 -0.9,1.21 0,0.8 0.2,1.26 0.8,2.83 0.4,1.08 1.9,4.77 1.9,6.72 0,3.39 -2.7,3.97 -4.6,3.97 -2.9,0 -4.8,-1.76 -5.9,-3.16 -0.2,2.4 -2.3,3.16 -3.7,3.16 -1.5,0 -2.3,-1.08 -2.7,-1.87 -0.8,-1.29 -1.3,-3.29 -1.3,-3.46 0,-0.45 0.5,-0.45 0.6,-0.45 0.5,0 0.5,0.11 0.8,1.05 0.5,2.06 1.1,3.76 2.5,3.76 0.9,0 1.1,-0.76 1.1,-1.7 0,-0.67 -0.3,-1.95 -0.5,-2.89 -0.2,-0.96 -0.6,-2.38 -0.8,-3.14 z"
         inkscape:connector-curvature="0"
         style="fill:#ffffff;stroke-width:0" /><path
         id="path15559"
         d="m 1803,316.12 0,0.07 0,0.07 0,0.07 0,0.07 0,0.07 0,0.08 0,0.08 0,0.08 0,0.08 0,0.07 0,0.08 0,0.08 0,0.08 0,0.08 -0.1,0.07 0,0.07 0,0.08 -0.1,0.07 0,0.06 -0.1,0.07 0,0.06 -0.1,0.05 0,0.03 0,0.02 0,0.03 -0.1,0.02 0,0.03 -0.1,0.02 0,0.02 0,0.02 -0.1,0.01 0,0.02 -0.1,0.02 0,0.01 0,0.01 -0.1,0.01 0,0.01 -0.1,0.01 -0.1,0 0,0.01 -0.1,0 0,0 c -0.8,0 -1.5,-0.65 -1.3,-1.3 v -0.65 l 0.7,-7.72 -6.4,4.64 c -0.5,0.25 -0.5,0.34 -0.9,0.34 -0.7,0 -1.3,-0.7 -1.3,-1.39 0,-0.79 0.5,-1 1,-1.25 l 7,-3.39 -6.8,-3.33 c -0.8,-0.4 -1.2,-0.6 -1.2,-1.35 0,-0.74 0.6,-1.4 1.3,-1.4 0.4,0 0.4,0 1.7,0.96 l 5.6,4.03 -0.8,-8.38 c 0,-1.04 0.9,-1.29 1.3,-1.29 0.6,0 1.4,0.36 1.4,1.29 l -0.8,8.38 6.4,-4.64 c 0.5,-0.24 0.5,-0.35 0.9,-0.35 0.7,0 1.3,0.71 1.3,1.4 0,0.75 -0.4,1 -1,1.29 -3,1.5 -3.1,1.5 -7,3.35 l 6.8,3.34 c 0.8,0.39 1.2,0.59 1.2,1.34 0,0.75 -0.6,1.39 -1.3,1.39 -0.4,0 -0.4,0 -1.7,-0.95 l -5.6,-4.03 z"
         inkscape:connector-curvature="0"
         style="fill:#ffffff;stroke-width:0" /><path
         id="path15561"
         d="m 1851,328.87 0,0 0,0.01 0,0 0,0.02 0,0.01 0,0.01 0,0.02 0,0.02 0,0.02 0,0.02 0,0.02 0,0.02 0,0.02 0,0.03 0,0.02 0,0.03 -0.1,0.02 0,0.03 0,0.02 0,0.02 0,0.03 0,0.01 -0.1,0.01 0,0.01 0,0.01 0,0.01 0,0.01 0,0.01 0,0.01 -0.1,0.01 0,0.01 0,0 0,0.01 0,0.01 -0.1,0.01 0,0 0,0.01 0,0 -0.1,0.01 0,0 0,0 0,0 -0.1,0.01 0,0 0,0 c -0.8,0 -5.5,-0.46 -6.3,-0.55 -0.5,-0.05 -0.8,-0.3 -0.8,-0.95 0,-0.6 0.5,-0.6 1.3,-0.6 2.3,0 2.4,-0.34 2.4,-0.84 l -0.1,-1 -3,-11.81 c -0.9,1.84 -2.3,3.19 -4.6,3.19 l 0.1,-1.1 c 3.2,0 3.9,-4.08 3.9,-4.37 0,-0.32 -0.1,-0.61 -0.1,-0.86 l -2.5,-9.77 c -0.3,-0.89 -0.3,-0.98 -1,-1.84 -2.2,-2.74 -4.3,-3.53 -5.7,-3.53 -2.4,0 -3.2,2.73 -3.2,4.68 0,2.49 1.6,8.61 2.8,10.91 1.5,2.94 3.8,4.78 5.8,4.78 l -0.1,1.1 c -5.8,0 -12,-7.32 -12,-14.6 0,-4.69 2.8,-7.97 6.6,-7.97 1,0 3.5,0.21 6.5,3.74 0.4,-2.1 2.2,-3.74 4.5,-3.74 1.8,0 2.9,1.14 3.7,2.74 0.9,1.79 1.5,4.84 1.5,4.93 0,0.5 -0.4,0.5 -0.6,0.5 -0.5,0 -0.5,-0.2 -0.7,-0.9 -0.8,-3.24 -1.7,-6.17 -3.7,-6.17 -1.4,0 -1.5,1.29 -1.5,2.29 0,1.19 0,1.55 0.2,2.39 z"
         inkscape:connector-curvature="0"
         style="fill:#ffffff;stroke-width:0" /><path
         id="path15563"
         d="m 1855.5,289.47 0,-0.04 0,-0.05 -0.1,-0.04 0,-0.05 0,-0.05 0,-0.06 0,-0.05 0,-0.05 -0.1,-0.11 0,-0.11 0,-0.12 0,-0.11 -0.1,-0.05 0,-0.05 0,-0.05 0,-0.05 0,-0.05 0,-0.04 0,-0.05 0,-0.04 0,-0.03 0,-0.04 0,-0.03 -0.1,-0.03 0,-0.02 0,-0.02 0,-0.01 0,-0.01 0,-0.01 0,0 c 0,-0.77 0.7,-1.11 1.2,-1.11 0.7,0 1.2,0.45 1.4,0.76 0.2,0.32 0.4,1.42 0.6,2.16 0.2,0.66 0.6,2.26 0.8,3.14 0.2,0.77 0.4,1.53 0.6,2.33 0.4,1.44 0.4,1.7 1.4,3.14 1,1.39 2.7,3.2 5.3,3.2 2,0 2,-1.78 2,-2.44 0,-2.09 -1.5,-5.95 -2,-7.42 -0.4,-0.98 -0.6,-1.29 -0.6,-1.89 0,-1.84 1.6,-2.98 3.3,-2.98 3.5,0 5.1,4.79 5.1,5.33 0,0.45 -0.5,0.45 -0.6,0.45 -0.5,0 -0.5,-0.2 -0.7,-0.6 -0.8,-2.78 -2.3,-4.21 -3.7,-4.21 -0.7,0 -0.8,0.48 -0.8,1.21 0,0.8 0.2,1.26 0.8,2.83 0.4,1.08 1.8,4.77 1.8,6.72 0,3.39 -2.7,3.97 -4.5,3.97 -2.9,0 -4.8,-1.76 -5.9,-3.16 -0.2,2.4 -2.3,3.16 -3.7,3.16 -1.5,0 -2.3,-1.08 -2.8,-1.87 -0.7,-1.29 -1.2,-3.29 -1.2,-3.46 0,-0.45 0.5,-0.45 0.6,-0.45 0.5,0 0.5,0.11 0.7,1.05 0.6,2.06 1.2,3.76 2.6,3.76 0.9,0 1.1,-0.76 1.1,-1.7 0,-0.67 -0.3,-1.95 -0.5,-2.89 -0.3,-0.96 -0.6,-2.38 -0.8,-3.14 z"
         inkscape:connector-curvature="0"
         style="fill:#ffffff;stroke-width:0" /><path
         id="path15565"
         d="m 1910.6,341.44 0,3.67 -0.2,3.67 -0.3,3.66 -0.4,3.64 -0.5,3.61 -0.7,3.58 -0.8,3.54 -0.9,3.49 -1.1,3.44 -0.6,1.69 -0.6,1.68 -0.7,1.66 -0.7,1.65 -0.8,1.62 -0.8,1.61 -0.9,1.58 -0.8,1.56 -1,1.54 -1,1.51 -1,1.49 -1,1.47 -1.2,1.43 -1.1,1.41 c -1,1.16 -2.9,3.19 -4.9,4.99 -0.7,0.61 -0.8,0.61 -1.4,0.61 -0.6,0 -1.1,0 -1.1,-0.5 0,-0.2 0.2,-0.41 0.3,-0.5 1.7,-1.8 5.1,-5.14 8.4,-10.52 8,-12.86 11.7,-29.04 11.7,-48.23 0,-13.39 -1.8,-30.69 -10,-45.53 -4,-7.08 -8.1,-11.21 -10.2,-13.3 -0.1,-0.16 -0.2,-0.3 -0.2,-0.45 0,-0.5 0.5,-0.5 1.1,-0.5 0.6,0 0.7,0 1.5,0.75 16.7,15.2 21.9,38.01 21.9,58.98 z"
         inkscape:connector-curvature="0"
         style="fill:#ffffff;stroke-width:0" /></g>  </g>
  <text
     xml:space="preserve"
     style="font-size:20px;font-style:italic;font-variant:normal;font-weight:bold;font-stretch:normal;text-align:center;line-height:125%;writing-mode:lr-tb;text-anchor:middle;fill:#ffffff;fill-opacity:1;stroke:#ffffff;stroke-width:2;stroke-miterlimit:4;stroke-dasharray:none;stroke-dashoffset:0;font-family:Open Sans;-inkscape-font-specification:Open Sans Bold Italic"
     x="433.76208"
     y="463.02829"
     id="text16149"
     sodipodi:linespacing="125%"><tspan
       sodipodi:role="line"
       id="tspan16151"
       x="433.76208"
       y="463.02829" /><tspan
       sodipodi:role="line"
       id="tspan16153"
       x="433.76208"
       y="488.02829" /></text>
  <text
     xml:space="preserve"
     style="font-size:22px;font-style:italic;font-variant:normal;font-weight:bold;font-stretch:normal;text-align:center;line-height:125%;writing-mode:lr-tb;text-anchor:middle;fill:#cccccc;fill-opacity:1;font-family:Open Sans;-inkscape-font-specification:Open Sans Bold Italic"
     x="767.80865"
     y="493.67499"
     id="text18608"
     sodipodi:linespacing="125%"><tspan
       sodipodi:role="line"
       id="tspan18610"
       x="770.66608"
       y="493.67499">Voxel Weight is Similarity </tspan><tspan
       sodipodi:role="line"
       id="tspan18612"
       x="767.80865"
       y="521.17499">to Nearest Observed Voxel</tspan></text>
</svg>
